<svg xmlns="http://www.w3.org/2000/svg" xmlns:xlink="http://www.w3.org/1999/xlink" id="Capa_1" x="0px" y="0px" viewBox="0 0 100 100" style="enable-background:new 0 0 100 100;" xml:space="preserve"><style type="text/css">	.st0{fill:#FFFFFF;}	.st1{fill:#00C64F;}</style><path class="st0" d="M89.74,0.35H10.26c-5.47,0-9.91,4.44-9.91,9.91v79.49c0,5.47,4.44,9.91,9.91,9.91h79.49 c5.47,0,9.91-4.44,9.91-9.91V10.26C99.65,4.79,95.21,0.35,89.74,0.35z"></path><g>	<path class="st1" d="M6.24,46.15c0.59-1.05,1.59-1.19,2.65-1.19c6.32,0,12.64,0,18.96,0c1.44,0,1.44,0,1.44-1.46  c0-2.76,0-5.52,0-8.28c0-1.14-0.01-1.12-1.12-1.17c-2.49-0.12-4.92-0.52-7.17-1.66c-3.25-1.65-4.94-4.43-5.72-7.86  c-0.52-2.29-0.66-4.61-0.36-6.95c0.14-1.06,0.75-1.72,1.81-1.85c3.19-0.37,6.31-0.11,9.31,1.07c3.81,1.5,5.82,4.47,6.72,8.34  c0.11,0.49-0.03,1.24,0.39,1.4c0.41,0.16,0.82-0.48,1.24-0.75c2.16-1.34,4.56-1.9,7.06-2.04c1.27-0.07,2.56-0.12,3.83,0.14  c0.77,0.16,1.35,0.62,1.45,1.38c0.55,4.24,0.2,8.33-2.5,11.87c-1.87,2.46-4.6,3.43-7.53,3.93c-0.96,0.16-1.92,0.22-2.89,0.18  c-0.5-0.02-0.73,0.17-0.72,0.69c0.02,0.77,0.02,1.54,0,2.31c-0.01,0.52,0.24,0.72,0.73,0.7c0.2-0.01,0.4,0,0.6,0  c10.59,0,21.18,0,31.77,0c1.34,0,1.34,0,1.34-1.38c0-2.79,0-5.58,0-8.37c0-1.14,0-1.11-1.11-1.16c-3.14-0.14-6.16-0.73-8.77-2.64  c-2.41-1.77-3.61-4.28-4.21-7.1c-0.48-2.24-0.61-4.51-0.27-6.79c0.15-1.03,0.7-1.65,1.68-1.77c3.48-0.42,6.88-0.13,10.1,1.36  c3.5,1.62,5.26,4.55,6.08,8.18c0.05,0.22,0.1,0.44,0.14,0.67c0.04,0.22,0.07,0.43,0.11,0.62c0.22,0.08,0.32-0.03,0.43-0.11  c3.51-2.62,7.51-3.05,11.7-2.57c0.93,0.11,1.5,0.71,1.63,1.61c0.42,3.04,0.14,6.03-0.98,8.89c-1.61,4.13-4.93,5.99-9.1,6.67  c-0.96,0.16-1.92,0.21-2.89,0.18c-0.52-0.02-0.72,0.21-0.71,0.71c0.02,0.57,0,1.14,0,1.71c0,1.29,0,1.3,1.26,1.29  c5.44-0.01,10.87-0.04,16.31-0.04c1.02,0,2.05,0.08,3.06,0.17c1.37,0.13,1.83,0.63,1.78,1.79c-0.05,1.11-0.83,1.85-2.03,1.86  c-2.39,0.02-4.79-0.08-7.17,0.03c-10.46,0.48-20.52,2.63-29.96,7.3c-0.94,0.47-0.95,0.49-0.06,1.09c1.36,0.93,2.69,1.91,3.95,2.98  c0.4,0.34,0.73,0.39,1.23,0.17c6.55-2.99,13.43-4.77,20.59-5.55c2.7-0.29,5.39-0.33,8.1-0.3c1.21,0.01,2.02,0.79,2.03,1.85  c0,1.1-0.84,1.85-2.1,1.85c-8.57-0.03-16.87,1.43-24.84,4.61c-1.42,0.57-1.41,0.56-0.37,1.65c0.78,0.82,1.56,1.66,2.3,2.53  c0.35,0.41,0.66,0.51,1.18,0.32c4.03-1.45,8.17-2.45,12.42-3c2.96-0.39,5.94-0.62,8.93-0.55c0.11,0,0.23,0.01,0.34,0.02  c1.39,0.13,2.25,0.93,2.18,2.02c-0.07,1.13-0.94,1.79-2.38,1.77c-6.46-0.11-12.75,0.82-18.9,2.83c-0.73,0.24-0.81,0.43-0.36,1.07  c2.65,3.77,4.76,7.82,6.4,12.13c0.43,1.13,0,2.15-0.99,2.56c-0.99,0.4-1.98-0.06-2.48-1.18c-0.14-0.31-0.26-0.63-0.39-0.95  c-1.32-3.22-2.9-6.31-4.8-9.23c-5.77-8.84-13.61-15.21-23.18-19.54c-7.19-3.25-14.75-5.12-22.58-5.99  c-4.03-0.45-8.06-0.53-12.1-0.46c-1.02,0.02-1.84-0.26-2.45-1.08C6.24,47.18,6.24,46.66,6.24,46.15z M27.75,30.25  c0.2,0,0.4,0,0.6,0c1.06,0.01,1.09-0.03,1.1-1.1c0.01-0.8-0.07-1.59-0.2-2.38c-0.41-2.43-1.25-4.64-3.53-5.95  c-2.01-1.16-4.22-1.46-6.5-1.46c-0.48,0-0.65,0.23-0.65,0.68c0,1,0.05,1.99,0.21,2.97c0.58,3.49,2.36,5.93,5.94,6.78  C25.71,30.04,26.71,30.25,27.75,30.25z M66.02,30.24c0.17,0,0.34,0,0.51,0c1.15,0.01,1.17,0,1.15-1.11  c-0.03-1.17-0.18-2.32-0.45-3.46c-0.54-2.26-1.67-4.11-3.84-5.14c-1.86-0.89-3.85-1.16-5.89-1.17c-0.52,0-0.72,0.25-0.7,0.73  c0.02,0.6,0.02,1.19,0.06,1.79c0.28,4.53,2.51,7.2,6.79,8.09C64.43,30.14,65.22,30.27,66.02,30.24z M79.67,27.55  c-0.59-0.04-1.3,0.09-1.99,0.23c-2.04,0.43-3.84,1.27-4.94,3.16c-1.08,1.85-1.34,3.9-1.36,6c0,0.43,0.19,0.64,0.62,0.61  c0.74-0.05,1.47-0.09,2.21-0.17c3.62-0.39,5.82-2.14,6.72-5.36c0.27-0.96,0.43-1.94,0.46-2.94C81.4,27.49,81.41,27.49,79.67,27.55z   M43.13,29.14c0-0.14,0-0.28,0-0.43c0.02-1.15-0.03-1.2-1.19-1.18c-0.8,0.01-1.59,0.07-2.37,0.23c-2.2,0.45-4.12,1.35-5.22,3.44  c-0.94,1.78-1.16,3.73-1.23,5.7c-0.02,0.48,0.2,0.68,0.67,0.64c0.71-0.06,1.42-0.1,2.12-0.17c3.9-0.39,6.13-2.34,6.95-6.05  C43.01,30.61,43.15,29.88,43.13,29.14z M37.59,48.78c-0.01,0.03-0.03,0.06-0.04,0.09c0.29,0.1,0.58,0.21,0.87,0.3  c3.71,1.23,7.27,2.78,10.69,4.67c0.6,0.33,1.04,0.36,1.64,0.02c3.36-1.87,6.88-3.39,10.52-4.65c0.34-0.12,0.67-0.23,1-0.35  c-0.01-0.03-0.02-0.06-0.03-0.09C54.02,48.78,45.8,48.78,37.59,48.78z"></path>	<path class="st1" d="M13.5,54.49c12.88,0.47,24.96,3.62,35.72,10.97c6.75,4.6,12.05,10.55,16.02,17.68  c0.6,1.08,0.52,1.98-0.21,2.64c-0.64,0.58-1.56,0.64-2.29,0.16c-0.42-0.28-0.65-0.71-0.89-1.13c-2.35-4.21-5.25-7.98-8.72-11.32  c-5.27-5.08-11.42-8.73-18.26-11.24c-7.42-2.72-15.08-4.08-22.99-3.96c-1.79,0.03-2.84-1.21-2.25-2.6c0.34-0.79,0.99-1.16,1.82-1.2  C12.13,54.47,12.82,54.49,13.5,54.49z"></path>	<path class="st1" d="M14.1,63.67c11.94,0.41,23.26,3.5,33.07,11.1c3.01,2.33,5.64,5.05,7.93,8.08c0.38,0.5,0.75,1.02,0.65,1.7  c-0.12,0.76-0.51,1.34-1.27,1.57c-0.73,0.22-1.43,0.09-1.95-0.51c-0.6-0.69-1.14-1.42-1.73-2.12  c-5.55-6.56-12.61-10.82-20.74-13.38c-5.91-1.86-11.96-2.75-18.16-2.6c-0.4,0.01-0.8,0.01-1.18-0.14c-0.8-0.32-1.22-0.92-1.25-1.77  c-0.03-0.79,0.56-1.52,1.37-1.76C11.82,63.59,12.83,63.76,14.1,63.67z"></path></g></svg>