<?xml version="1.0" encoding="UTF-8"?>
<svg id="Capa_2" data-name="Capa 2" xmlns="http://www.w3.org/2000/svg" viewBox="0 0 1080 1080">
  <defs>
    <style>
      .cls-1 {
        fill: #04b71e;
      }

      .cls-1, .cls-2 {
        stroke-width: 0px;
      }

      .cls-3 {
        fill: none;
        stroke: #006719;
        stroke-miterlimit: 10;
        stroke-width: 34px;
      }

      .cls-2 {
        fill: #fff;
      }
    </style>
  </defs>
  <g id="carro">
    <g>
      <rect class="cls-1" width="1080" height="1080" rx="133.88" ry="133.88"/>
      <path class="cls-2" d="M309.64,784.21c-7.32,0-14.04-4.02-17.52-10.45s-6.88-12.99-7.03-19.56c-1.23-54.04-.85-108.12-.36-162.19.1-11.2,2.86-22.38,4.56-34.26.06-.39-.13-.77-.48-.96-1.12-.6-2.49-1.44-3.98-1.89-10.23-3.14-27.12,7.26-28.77-13.25-1.51-18.76,14.94-42.9,31.25-41.87,22.16,1.4,28.98-9.93,34.38-27.9,7.07-23.49,17.99-45.88,24.31-69.53,9.87-36.91,35.09-57.7,69.81-64.24,85.97-16.18,172.43-17.39,258.37,1.67,30.14,6.68,50.52,23.97,59.92,55.04,9.08,29.99,21.93,58.81,32.31,88.43,3.92,11.18,9.34,15.86,21.97,15.8,23.55-.12,41.13,19.2,39.28,42.4-.37,4.6-6.97,10.48-11.99,12.46-5.35,2.11-11.85,1.3-15.11,1.21-.52-.01-.95.41-.95.93,0,66.75.54,132.43-.58,198.08-.1,5.63-2.59,11.23-5.53,16.81-4.3,8.18-12.83,13.26-22.08,13.26h-65.87c-4.31,0-8.5-1.59-11.63-4.54-14.53-13.72-2.91-35.73-10.35-51.33-.15-.32-.49-.53-.85-.53h-281.94c-.4,0-.77.26-.9.64-3.78,11.5-.41,24.77-2.31,36.33-1.85,11.23-11.61,19.43-22.98,19.43h-64.98ZM729.5,507.47c.55-.11.88-.69.7-1.22-11.12-33.46-21.92-62.57-30.24-92.37-6.49-23.25-21.69-34.72-43.74-36.43-47.67-3.7-95.45-7.41-143.22-7.85-30.57-.28-61.46,3.71-91.65,9.01-11.26,1.98-26.28,10.83-30.35,20.45-14.34,33.93-24.78,69.51-37.53,107.05-.18.53.15,1.1.69,1.22,126.76,26.23,249.14,26.17,375.34.14ZM377.67,643.86h0c.03-.49.45-.88.94-.88,9.26.11,18.95,1.8,27.53-.56,7.77-2.14,14.35-8.63,21.39-13.42.42-.29.53-.84.25-1.27-4.45-6.78-7.66-15.96-13.94-19.19-19.23-9.88-39.39-18.31-59.87-25.3-32.32-11.03-42.77-2.26-41.94,31.12.38,15.04,7.51,23.06,21.09,25.38,14.37,2.46,29,3.41,43.52,4.98.53.06.99-.33,1.03-.86ZM710.79,644.63c.06,0,.12,0,.17,0,11.94-1.59,28.45-2.39,44.17-6.32,16.06-4.01,20.48-19.48,15.94-42.9-2.77-14.29-13.57-19.23-24.13-15.71-28.26,9.44-55.84,21.1-83.05,33.31-4.27,1.91-8.19,12.11-6.84,16.96,1.4,5.02,8.94,10.47,14.66,11.68,11.22,2.38,23.03,1.97,39.07,2.99Z"/>
      <rect class="cls-3" x="101.06" y="111.36" width="886" height="886" rx="72" ry="72"/>
    </g>
  </g>
</svg>