<svg xmlns="http://www.w3.org/2000/svg" fill="none" viewBox="0 0 25 25"><path d="M11.3799 0.0303345C8.96222 0.265102 6.73053 1.15526 4.77292 2.66168C3.81858 3.39533 2.58038 4.77458 1.86585 5.89951C1.55753 6.38371 0.955562 7.61624 0.740224 8.20316C0.500416 8.85855 0.241032 9.86609 0.113787 10.6438C-0.0379288 11.5975 -0.0379288 13.4072 0.113787 14.3609C0.334018 15.7108 0.681496 16.7966 1.27367 18.0047C1.91969 19.3204 2.59017 20.2545 3.66686 21.3354C4.74845 22.4114 5.68321 23.0815 6.99971 23.7271C8.20854 24.3189 9.29501 24.6662 10.6458 24.8863C11.6001 25.0379 13.4109 25.0379 14.3652 24.8863C15.716 24.6662 16.8025 24.3189 18.0113 23.7271C19.3278 23.0815 20.2626 22.4114 21.3441 21.3354C22.4208 20.2545 23.0913 19.3204 23.7373 18.0047C24.168 17.1292 24.3834 16.5569 24.6183 15.6766C24.9266 14.5027 25 13.862 25 12.5023C25 11.1426 24.9266 10.5019 24.6183 9.32808C24.3834 8.44771 24.168 7.87546 23.7373 6.99998C23.0913 5.68431 22.4208 4.75013 21.3441 3.66922C20.2626 2.59321 19.3278 1.92314 18.0113 1.27753C16.8074 0.685726 15.6915 0.333576 14.3897 0.128155C13.6703 0.0156631 12.065 -0.0381393 11.3799 0.0303345ZM18.9118 7.44017C19.7585 7.66515 20.3066 8.5064 20.1843 9.39656C20.106 9.96391 20.2136 9.84653 15.7894 14.2778C11.0618 19.0122 11.3848 18.7383 10.5724 18.7383C9.7991 18.7383 9.8823 18.8068 7.31292 16.2293C5.69789 14.6103 5.05677 13.9354 4.97847 13.774C4.75823 13.3044 4.75823 12.6686 4.98336 12.2089C5.13508 11.9007 5.50702 11.5437 5.83982 11.3872C6.07963 11.2747 6.1824 11.2551 6.55924 11.2551C7.30314 11.2551 7.36676 11.2991 9.10415 13.0403L10.5724 14.5076L13.9982 11.0888C16.3082 8.78518 17.4925 7.63581 17.6296 7.56733C18.0358 7.36191 18.4713 7.32278 18.9118 7.44017Z" fill="#076C3A"></path><path d="M11.3799 0.0303345C8.96222 0.265102 6.73053 1.15526 4.77292 2.66168C3.81858 3.39533 2.58038 4.77458 1.86585 5.89951C1.55753 6.38371 0.955562 7.61624 0.740224 8.20316C0.500416 8.85855 0.241032 9.86609 0.113787 10.6438C-0.0379288 11.5975 -0.0379288 13.4072 0.113787 14.3609C0.334018 15.7108 0.681496 16.7966 1.27367 18.0047C1.91969 19.3204 2.59017 20.2545 3.66686 21.3354C4.74845 22.4114 5.68321 23.0815 6.99971 23.7271C8.20854 24.3189 9.29501 24.6662 10.6458 24.8863C11.6001 25.0379 13.4109 25.0379 14.3652 24.8863C15.716 24.6662 16.8025 24.3189 18.0113 23.7271C19.3278 23.0815 20.2626 22.4114 21.3441 21.3354C22.4208 20.2545 23.0913 19.3204 23.7373 18.0047C24.168 17.1292 24.3834 16.5569 24.6183 15.6766C24.9266 14.5027 25 13.862 25 12.5023C25 11.1426 24.9266 10.5019 24.6183 9.32808C24.3834 8.44771 24.168 7.87546 23.7373 6.99998C23.0913 5.68431 22.4208 4.75013 21.3441 3.66922C20.2626 2.59321 19.3278 1.92314 18.0113 1.27753C16.8074 0.685726 15.6915 0.333576 14.3897 0.128155C13.6703 0.0156631 12.065 -0.0381393 11.3799 0.0303345ZM18.9118 7.44017C19.7585 7.66515 20.3066 8.5064 20.1843 9.39656C20.106 9.96391 20.2136 9.84653 15.7894 14.2778C11.0618 19.0122 11.3848 18.7383 10.5724 18.7383C9.7991 18.7383 9.8823 18.8068 7.31292 16.2293C5.69789 14.6103 5.05677 13.9354 4.97847 13.774C4.75823 13.3044 4.75823 12.6686 4.98336 12.2089C5.13508 11.9007 5.50702 11.5437 5.83982 11.3872C6.07963 11.2747 6.1824 11.2551 6.55924 11.2551C7.30314 11.2551 7.36676 11.2991 9.10415 13.0403L10.5724 14.5076L13.9982 11.0888C16.3082 8.78518 17.4925 7.63581 17.6296 7.56733C18.0358 7.36191 18.4713 7.32278 18.9118 7.44017Z" fill="#076C3A"></path></svg>