<?xml version="1.0" encoding="UTF-8"?>
<svg id="Capa_2" data-name="Capa 2" xmlns="http://www.w3.org/2000/svg" viewBox="0 0 868.52 390.61">
  <defs>
    <style>
      .cls-1 {
        fill: none;
      }

      .cls-1, .cls-2 {
        stroke-width: 0px;
      }

      .cls-2 {
        fill: #01cf2d;
      }
    </style>
  </defs>
  <g id="piscina">
    <g>
      <g>
        <path class="cls-2" d="M48.19,163.99c-6.93,0-13.31-1.13-19.15-3.4-5.84-2.26-10.93-5.47-15.27-9.62-4.34-4.15-7.72-9.09-10.14-14.82-2.42-5.73-3.63-12.01-3.63-18.86s1.21-13.13,3.63-18.86c2.42-5.73,5.8-10.67,10.14-14.82,4.34-4.15,9.43-7.35,15.27-9.62,5.84-2.26,12.22-3.4,19.15-3.4,8.09,0,15.33,1.43,21.72,4.3,6.38,2.87,11.7,7.08,15.96,12.63l-15.77,14.62c-2.84-3.42-5.97-6.03-9.39-7.83-3.42-1.8-7.18-2.69-11.27-2.69-3.59,0-6.88.6-9.89,1.8-3,1.2-5.57,2.93-7.7,5.19-2.13,2.27-3.8,4.98-5.01,8.15-1.21,3.17-1.81,6.67-1.81,10.52s.6,7.36,1.81,10.52c1.21,3.17,2.88,5.88,5.01,8.15,2.13,2.27,4.69,4,7.7,5.19,3,1.2,6.3,1.8,9.89,1.8,4.09,0,7.84-.9,11.27-2.69,3.42-1.8,6.55-4.45,9.39-7.95l15.77,14.62c-4.26,5.56-9.58,9.79-15.96,12.7-6.38,2.91-13.62,4.36-21.72,4.36Z"/>
        <path class="cls-2" d="M124.92,163.34c-7.43,0-14.02-1.54-19.78-4.62-5.76-3.08-10.29-7.33-13.58-12.76-3.3-5.43-4.94-11.61-4.94-18.54s1.65-13.23,4.94-18.66c3.29-5.43,7.82-9.68,13.58-12.76,5.76-3.08,12.35-4.62,19.78-4.62s14.04,1.54,19.84,4.62c5.8,3.08,10.35,7.33,13.64,12.76,3.29,5.43,4.94,11.65,4.94,18.66s-1.65,13.11-4.94,18.54c-3.3,5.43-7.84,9.68-13.64,12.76-5.8,3.08-12.41,4.62-19.84,4.62ZM124.92,143.97c2.67,0,5.07-.64,7.2-1.92,2.13-1.28,3.84-3.18,5.13-5.71,1.29-2.52,1.94-5.54,1.94-9.04s-.65-6.58-1.94-8.98c-1.29-2.39-3-4.23-5.13-5.52-2.13-1.28-4.53-1.92-7.2-1.92s-5.07.64-7.2,1.92c-2.13,1.28-3.84,3.12-5.13,5.52-1.29,2.39-1.94,5.39-1.94,8.98s.65,6.52,1.94,9.04c1.29,2.52,3,4.42,5.13,5.71,2.13,1.28,4.53,1.92,7.2,1.92Z"/>
        <path class="cls-2" d="M215.66,91.38c5.26,0,10.01,1.11,14.27,3.33,4.26,2.22,7.61,5.6,10.08,10.13,2.46,4.53,3.69,10.39,3.69,17.57v39.76h-23.91v-35.79c0-4.96-.98-8.57-2.94-10.84-1.96-2.26-4.61-3.4-7.95-3.4-2.59,0-4.92.58-7.01,1.73-2.09,1.15-3.71,2.93-4.88,5.32-1.17,2.4-1.75,5.56-1.75,9.49v33.48h-23.78v-69.65h22.78v19.88l-4.51-5.77c2.59-4.96,6.13-8.74,10.64-11.35,4.51-2.61,9.6-3.91,15.27-3.91Z"/>
        <path class="cls-2" d="M290.76,163.34c-7.43,0-14.02-1.54-19.78-4.62-5.76-3.08-10.29-7.33-13.58-12.76-3.3-5.43-4.94-11.61-4.94-18.54s1.65-13.23,4.94-18.66c3.29-5.43,7.82-9.68,13.58-12.76,5.76-3.08,12.35-4.62,19.78-4.62s14.04,1.54,19.84,4.62c5.8,3.08,10.35,7.33,13.64,12.76,3.29,5.43,4.94,11.65,4.94,18.66s-1.65,13.11-4.94,18.54c-3.3,5.43-7.84,9.68-13.64,12.76-5.8,3.08-12.41,4.62-19.84,4.62ZM290.76,143.97c2.67,0,5.07-.64,7.2-1.92,2.13-1.28,3.84-3.18,5.13-5.71,1.29-2.52,1.94-5.54,1.94-9.04s-.65-6.58-1.94-8.98c-1.29-2.39-3-4.23-5.13-5.52-2.13-1.28-4.53-1.92-7.2-1.92s-5.07.64-7.2,1.92c-2.13,1.28-3.84,3.12-5.13,5.52-1.29,2.39-1.94,5.39-1.94,8.98s.65,6.52,1.94,9.04c1.29,2.52,3,4.42,5.13,5.71,2.13,1.28,4.53,1.92,7.2,1.92Z"/>
        <path class="cls-2" d="M372,163.34c-7.59,0-14.31-1.54-20.15-4.62-5.84-3.08-10.43-7.33-13.77-12.76-3.34-5.43-5.01-11.61-5.01-18.54s1.67-13.21,5.01-18.6c3.34-5.39,7.93-9.64,13.77-12.76,5.84-3.12,12.56-4.68,20.15-4.68s14.31,1.69,19.9,5.07c5.59,3.38,9.55,8.06,11.89,14.04l-18.4,9.75c-1.59-3.25-3.55-5.62-5.88-7.12-2.34-1.5-4.88-2.24-7.63-2.24s-5.24.64-7.45,1.92c-2.21,1.28-3.99,3.12-5.32,5.52-1.34,2.39-2,5.43-2,9.11s.67,6.5,2,8.98c1.33,2.48,3.11,4.36,5.32,5.64,2.21,1.28,4.69,1.92,7.45,1.92s5.3-.75,7.63-2.25c2.33-1.5,4.3-3.87,5.88-7.12l18.4,9.62c-2.34,5.99-6.3,10.67-11.89,14.05-5.59,3.38-12.23,5.07-19.9,5.07Z"/>
        <path class="cls-2" d="M444.97,163.34c-8.09,0-15.13-1.56-21.09-4.68-5.97-3.12-10.6-7.4-13.89-12.83-3.3-5.43-4.94-11.56-4.94-18.41s1.61-13.23,4.82-18.66c3.21-5.43,7.63-9.68,13.27-12.76,5.63-3.08,12.04-4.62,19.21-4.62,6.68,0,12.75,1.43,18.21,4.3,5.46,2.87,9.84,6.97,13.14,12.31,3.29,5.35,4.94,11.87,4.94,19.56,0,.86-.04,1.84-.12,2.95-.08,1.11-.17,2.14-.25,3.08h-53.7v-12.83h41.06l-9.01,3.59c.08-3.08-.48-5.79-1.69-8.14-1.21-2.35-2.86-4.17-4.94-5.45-2.09-1.28-4.55-1.92-7.38-1.92s-5.47.64-7.64,1.92c-2.17,1.28-3.82,3.1-4.94,5.45-1.13,2.35-1.69,5.11-1.69,8.27v3.72c0,3.42.69,6.37,2.07,8.85,1.38,2.48,3.36,4.38,5.95,5.71,2.59,1.33,5.67,1.99,9.26,1.99s6.3-.49,8.64-1.47c2.33-.98,4.67-2.5,7.01-4.55l12.39,13.47c-3.17,3.59-7.13,6.35-11.89,8.27-4.76,1.92-10.35,2.89-16.77,2.89Z"/>
      </g>
      <g>
        <path class="cls-2" d="M169.8,215.47v-18.21h49.19v18.21h-49.19ZM207.23,265.37c-8.68,0-15.44-2.2-20.28-6.61-4.84-4.4-7.26-11.05-7.26-19.95v-59.77h23.78v59.39c0,2.65.65,4.66,1.94,6.03,1.29,1.37,3.02,2.05,5.19,2.05,2.75,0,5.17-.73,7.26-2.18l6.01,16.93c-2.17,1.46-4.69,2.5-7.57,3.14s-5.9.96-9.08.96Z"/>
        <path class="cls-2" d="M258.67,265.37c-5.51,0-10.45-1.11-14.83-3.33-4.38-2.22-7.8-5.71-10.26-10.45-2.46-4.75-3.69-10.79-3.69-18.15v-38.87h23.78v34.89c0,5.39.98,9.26,2.94,11.61,1.96,2.35,4.74,3.53,8.32,3.53,2.33,0,4.48-.55,6.45-1.67,1.96-1.11,3.48-2.89,4.57-5.32,1.08-2.44,1.63-5.54,1.63-9.3v-33.74h23.78v69.65h-22.53v-19.63l4.38,5.52c-2.42,5.13-5.82,8.96-10.2,11.48-4.38,2.52-9.16,3.78-14.33,3.78Z"/>
        <path class="cls-2" d="M373.7,264.21h-24.78v-89.79h68.59v19.75h-43.81v70.04ZM371.82,213.8h40.43v19.63h-40.43v-19.63Z"/>
        <path class="cls-2" d="M452.3,265.37c-5.51,0-10.45-1.11-14.83-3.33-4.38-2.22-7.8-5.71-10.26-10.45-2.46-4.75-3.69-10.79-3.69-18.15v-38.87h23.78v34.89c0,5.39.98,9.26,2.94,11.61,1.96,2.35,4.73,3.53,8.32,3.53,2.34,0,4.48-.55,6.45-1.67,1.96-1.11,3.48-2.89,4.57-5.32,1.08-2.44,1.63-5.54,1.63-9.3v-33.74h23.78v69.65h-22.53v-19.63l4.38,5.52c-2.42,5.13-5.82,8.96-10.2,11.48-4.38,2.52-9.16,3.78-14.33,3.78Z"/>
        <path class="cls-2" d="M500.49,215.47v-18.21h49.19v18.21h-49.19ZM537.92,265.37c-8.68,0-15.44-2.2-20.28-6.61-4.84-4.4-7.26-11.05-7.26-19.95v-59.77h23.78v59.39c0,2.65.65,4.66,1.94,6.03,1.29,1.37,3.02,2.05,5.19,2.05,2.75,0,5.17-.73,7.26-2.18l6.01,16.93c-2.17,1.46-4.69,2.5-7.57,3.14s-5.9.96-9.07.96Z"/>
        <path class="cls-2" d="M589.36,265.37c-5.51,0-10.45-1.11-14.83-3.33s-7.8-5.71-10.26-10.45c-2.46-4.75-3.69-10.79-3.69-18.15v-38.87h23.78v34.89c0,5.39.98,9.26,2.94,11.61,1.96,2.35,4.73,3.53,8.32,3.53,2.34,0,4.48-.55,6.45-1.67,1.96-1.11,3.48-2.89,4.57-5.32,1.08-2.44,1.63-5.54,1.63-9.3v-33.74h23.78v69.65h-22.53v-19.63l4.38,5.52c-2.42,5.13-5.82,8.96-10.2,11.48-4.38,2.52-9.16,3.78-14.33,3.78Z"/>
        <path class="cls-2" d="M644.68,264.21v-69.65h22.78v20.4l-3.5-5.77c2.08-5.21,5.36-9.15,9.83-11.8,4.46-2.65,9.91-3.98,16.33-3.98v22.06c-1.09-.17-2.05-.28-2.88-.32-.83-.04-1.67-.06-2.5-.06-4.84,0-8.76,1.35-11.77,4.04s-4.51,7.08-4.51,13.15v31.94h-23.78Z"/>
        <path class="cls-2" d="M730.55,265.37c-7.43,0-14.02-1.54-19.78-4.62-5.76-3.08-10.29-7.33-13.58-12.76-3.3-5.43-4.94-11.61-4.94-18.54s1.65-13.23,4.94-18.66c3.29-5.43,7.82-9.68,13.58-12.76,5.76-3.08,12.35-4.62,19.78-4.62s14.04,1.54,19.84,4.62c5.8,3.08,10.35,7.33,13.64,12.76,3.29,5.43,4.94,11.65,4.94,18.66s-1.65,13.11-4.94,18.54c-3.3,5.43-7.84,9.68-13.64,12.76-5.8,3.08-12.41,4.62-19.84,4.62ZM730.55,246c2.67,0,5.07-.64,7.2-1.92,2.13-1.28,3.84-3.18,5.13-5.71,1.29-2.52,1.94-5.54,1.94-9.04s-.65-6.58-1.94-8.98c-1.29-2.39-3-4.23-5.13-5.52-2.13-1.28-4.53-1.92-7.2-1.92s-5.07.64-7.2,1.92c-2.13,1.28-3.84,3.12-5.13,5.52-1.29,2.39-1.94,5.39-1.94,8.98s.65,6.52,1.94,9.04c1.29,2.52,3,4.42,5.13,5.71,2.13,1.28,4.53,1.92,7.2,1.92Z"/>
      </g>
      <g>
        <path class="cls-2" d="M79.57,186.63c2.17,0,4.06.43,5.67,1.28,1.61.85,2.86,2.14,3.76,3.88.9,1.74,1.35,3.93,1.35,6.56v15.89h-3.61v-15.53c0-2.88-.67-5.06-2.01-6.54-1.34-1.48-3.23-2.21-5.67-2.21-1.83,0-3.42.39-4.75,1.17-1.34.78-2.37,1.91-3.1,3.39-.73,1.48-1.09,3.26-1.09,5.34v14.38h-3.61v-15.53c0-2.88-.68-5.06-2.03-6.54-1.36-1.48-3.25-2.21-5.69-2.21-1.8,0-3.37.39-4.73,1.17-1.36.78-2.4,1.91-3.13,3.39-.73,1.48-1.09,3.26-1.09,5.34v14.38h-3.61v-27.35h3.46v7.4l-.56-1.3c.81-1.98,2.13-3.53,3.94-4.66,1.81-1.13,3.96-1.69,6.43-1.69,2.61,0,4.83.67,6.66,2.01,1.83,1.34,3.02,3.34,3.56,6.02l-1.42-.57c.78-2.22,2.16-4.02,4.14-5.39,1.98-1.37,4.36-2.06,7.14-2.06Z"/>
        <path class="cls-2" d="M106.57,214.51c-2,0-3.74-.34-5.21-1.02-1.47-.68-2.6-1.61-3.38-2.81-.78-1.2-1.17-2.58-1.17-4.14,0-1.42.33-2.72.99-3.88.66-1.16,1.75-2.1,3.25-2.81,1.51-.71,3.53-1.07,6.08-1.07h9.2v2.76h-9.1c-2.58,0-4.36.47-5.36,1.41s-1.5,2.1-1.5,3.49c0,1.56.59,2.81,1.78,3.75,1.19.94,2.85,1.41,4.98,1.41s3.79-.48,5.26-1.43c1.47-.96,2.55-2.34,3.23-4.14l.81,2.55c-.68,1.81-1.86,3.25-3.53,4.32-1.68,1.08-3.79,1.62-6.33,1.62ZM115.77,214.25v-6.04l-.15-.99v-10.11c0-2.33-.64-4.12-1.91-5.37-1.27-1.25-3.16-1.88-5.67-1.88-1.73,0-3.37.3-4.93.89-1.56.59-2.88,1.37-3.97,2.34l-1.63-2.76c1.36-1.18,2.98-2.09,4.88-2.74,1.9-.64,3.9-.96,6-.96,3.46,0,6.13.88,8.01,2.63,1.88,1.75,2.82,4.42,2.82,8v16.98h-3.46ZM105.19,182.62l6.96-6.46h4.83l-8.24,6.46h-3.56Z"/>
        <path class="cls-2" d="M135.09,214.51c-2.2,0-4.29-.32-6.25-.96-1.97-.64-3.51-1.45-4.63-2.42l1.63-2.92c1.08.83,2.47,1.56,4.17,2.16,1.69.61,3.47.91,5.34.91,2.54,0,4.37-.41,5.49-1.22,1.12-.82,1.68-1.9,1.68-3.26,0-1.01-.31-1.8-.94-2.37-.63-.57-1.45-1.01-2.47-1.3-1.02-.29-2.15-.55-3.41-.76-1.25-.21-2.5-.45-3.74-.73-1.24-.28-2.36-.69-3.38-1.22s-1.84-1.28-2.47-2.21-.94-2.19-.94-3.75.41-2.83,1.22-4.01c.81-1.18,2.01-2.11,3.58-2.79,1.58-.68,3.5-1.02,5.77-1.02,1.73,0,3.46.24,5.19.7s3.15,1.09,4.27,1.85l-1.58,2.97c-1.19-.83-2.46-1.43-3.81-1.8-1.36-.36-2.71-.55-4.07-.55-2.41,0-4.18.43-5.31,1.28-1.14.85-1.7,1.94-1.7,3.26,0,1.04.31,1.86.94,2.45s1.46,1.05,2.49,1.38c1.03.33,2.17.6,3.41.81,1.24.21,2.47.46,3.71.76,1.24.3,2.37.7,3.41,1.2,1.03.5,1.86,1.22,2.49,2.14.63.92.94,2.13.94,3.62,0,1.6-.43,2.98-1.3,4.14s-2.12,2.07-3.76,2.71c-1.64.64-3.64.96-5.97.96Z"/>
      </g>
      <g>
        <path class="cls-2" d="M100.1,257.15c-2.54,0-4.82-.59-6.84-1.77-2.02-1.18-3.6-2.82-4.75-4.92-1.15-2.1-1.73-4.52-1.73-7.27s.58-5.21,1.73-7.29c1.15-2.08,2.74-3.71,4.75-4.87,2.02-1.16,4.3-1.75,6.84-1.75,2.34,0,4.43.54,6.28,1.62,1.85,1.08,3.32,2.65,4.42,4.72s1.65,4.59,1.65,7.58-.54,5.47-1.63,7.55-2.55,3.67-4.4,4.77c-1.85,1.09-3.96,1.64-6.33,1.64ZM100.36,253.86c1.9,0,3.6-.44,5.11-1.33,1.51-.89,2.69-2.14,3.56-3.75s1.3-3.48,1.3-5.6-.43-4.03-1.3-5.63c-.86-1.6-2.05-2.84-3.56-3.72-1.51-.89-3.21-1.33-5.11-1.33s-3.54.44-5.03,1.33-2.68,2.13-3.56,3.72c-.88,1.6-1.32,3.47-1.32,5.63s.44,3.99,1.32,5.6c.88,1.62,2.07,2.87,3.56,3.75s3.17,1.33,5.03,1.33ZM110.42,256.88v-8.23l.36-5.52-.51-5.52v-19.38h3.61v38.66h-3.46Z"/>
        <path class="cls-2" d="M134.16,257.15c-2.78,0-5.22-.6-7.32-1.8-2.1-1.2-3.75-2.85-4.93-4.95-1.19-2.1-1.78-4.51-1.78-7.22s.57-5.11,1.7-7.19c1.13-2.08,2.69-3.73,4.68-4.92,1.98-1.2,4.21-1.8,6.69-1.8s4.74.58,6.69,1.75c1.95,1.16,3.48,2.8,4.6,4.9s1.68,4.52,1.68,7.27c0,.17,0,.36-.03.55-.02.19-.03.39-.03.6h-23.23v-2.76h21.3l-1.42,1.09c0-1.98-.42-3.74-1.25-5.29-.83-1.54-1.96-2.75-3.38-3.62s-3.07-1.3-4.93-1.3-3.47.43-4.93,1.3c-1.46.87-2.59,2.08-3.41,3.65-.81,1.56-1.22,3.35-1.22,5.37v.57c0,2.08.45,3.92,1.35,5.5.9,1.58,2.15,2.81,3.76,3.7,1.61.89,3.45,1.33,5.52,1.33,1.63,0,3.14-.29,4.55-.89,1.41-.59,2.62-1.49,3.63-2.71l2.03,2.4c-1.19,1.46-2.67,2.57-4.45,3.33-1.78.76-3.74,1.15-5.87,1.15Z"/>
      </g>
      <g>
        <path class="cls-2" d="M314.91,364.57h-24.78v-89.79h24.78v89.79ZM350.33,329.55h-37.3v-21.04h37.3v21.04ZM348.58,274.78h24.78v89.79h-24.78v-89.79Z"/>
        <path class="cls-2" d="M421.05,365.73c-7.43,0-14.02-1.54-19.78-4.62-5.76-3.08-10.29-7.33-13.58-12.76-3.3-5.43-4.94-11.61-4.94-18.54s1.65-13.23,4.94-18.66c3.3-5.43,7.82-9.68,13.58-12.76,5.76-3.08,12.35-4.62,19.78-4.62s14.04,1.54,19.84,4.62c5.8,3.08,10.35,7.33,13.64,12.76,3.3,5.43,4.94,11.65,4.94,18.66s-1.65,13.11-4.94,18.54c-3.3,5.43-7.84,9.68-13.64,12.76-5.8,3.08-12.41,4.62-19.84,4.62ZM421.05,346.36c2.67,0,5.07-.64,7.2-1.92,2.13-1.28,3.84-3.18,5.13-5.71,1.29-2.52,1.94-5.54,1.94-9.04s-.65-6.58-1.94-8.98c-1.29-2.39-3-4.23-5.13-5.52-2.13-1.28-4.53-1.92-7.2-1.92s-5.07.64-7.2,1.92c-2.13,1.28-3.84,3.12-5.13,5.52-1.29,2.39-1.94,5.39-1.94,8.98s.65,6.52,1.94,9.04c1.29,2.52,3,4.42,5.13,5.71,2.13,1.28,4.53,1.92,7.2,1.92Z"/>
        <path class="cls-2" d="M496.53,360.98c-5.93,0-11.41-1.39-16.46-4.17-5.05-2.78-9.1-6.67-12.14-11.67-3.05-5-4.57-10.92-4.57-17.77s1.52-12.78,4.57-17.83c3.04-5.04,7.09-8.93,12.14-11.67,5.05-2.74,10.53-4.1,16.46-4.1s10.81,1.2,14.9,3.59c4.09,2.4,7.2,6.09,9.32,11.1s3.19,11.31,3.19,18.92-1.06,13.92-3.19,18.92c-2.13,5-5.24,8.7-9.32,11.1-4.09,2.4-9.06,3.59-14.9,3.59ZM500.78,390.61c-6.51,0-12.73-.77-18.65-2.31-5.93-1.54-10.93-3.81-15.02-6.8l8.64-16.93c2.84,2.22,6.36,4,10.58,5.32,4.21,1.33,8.36,1.99,12.45,1.99,6.34,0,10.91-1.43,13.71-4.3,2.79-2.87,4.19-7.03,4.19-12.51v-8.08l1.25-19.63v-32.45h22.53v56.95c0,13.17-3.44,22.92-10.33,29.25-6.88,6.33-16.67,9.49-29.35,9.49ZM502.28,341.61c2.92,0,5.46-.6,7.64-1.8,2.17-1.2,3.9-2.86,5.19-5,1.29-2.14,1.94-4.62,1.94-7.44s-.65-5.3-1.94-7.44c-1.29-2.14-3.03-3.78-5.19-4.94-2.17-1.15-4.72-1.73-7.64-1.73s-5.36.58-7.57,1.73c-2.21,1.15-3.99,2.8-5.32,4.94-1.34,2.14-2,4.62-2,7.44s.67,5.3,2,7.44c1.33,2.14,3.11,3.81,5.32,5,2.21,1.2,4.73,1.8,7.57,1.8Z"/>
        <path class="cls-2" d="M574.5,365.73c-5.34,0-9.91-.94-13.71-2.82-3.8-1.88-6.68-4.45-8.64-7.7-1.96-3.25-2.94-6.84-2.94-10.77,0-4.28,1.06-8,3.19-11.16,2.13-3.16,5.42-5.58,9.89-7.25,4.46-1.67,10.16-2.5,17.09-2.5h16.02v12.83h-12.77c-3.84,0-6.53.6-8.07,1.8-1.54,1.2-2.32,2.91-2.32,5.13,0,2.05.79,3.74,2.38,5.07,1.58,1.33,3.75,1.99,6.51,1.99s5.07-.66,7.2-1.99c2.13-1.33,3.65-3.36,4.57-6.09l3.25,8.98c-1.25,4.79-3.69,8.4-7.32,10.84-3.63,2.44-8.41,3.66-14.33,3.66ZM594.53,364.57v-12.96l-1.63-3.21v-23.86c0-3.85-1.15-6.82-3.44-8.91-2.3-2.09-5.95-3.14-10.95-3.14-3.25,0-6.57.56-9.95,1.67-3.38,1.11-6.24,2.52-8.57,4.23l-7.89-16.42c3.84-2.57,8.45-4.57,13.83-6.03,5.38-1.45,10.74-2.18,16.08-2.18,11.02,0,19.55,2.61,25.6,7.83,6.05,5.22,9.07,13.34,9.07,24.37v38.61h-22.15Z"/>
        <path class="cls-2" d="M628.95,364.57v-69.65h22.78v20.4l-3.5-5.77c2.08-5.21,5.36-9.15,9.83-11.8,4.46-2.65,9.91-3.98,16.33-3.98v22.06c-1.09-.17-2.05-.28-2.88-.32-.84-.04-1.67-.06-2.5-.06-4.84,0-8.76,1.35-11.77,4.04-3,2.69-4.51,7.08-4.51,13.15v31.94h-23.78Z"/>
      </g>
      <path class="cls-1" d="M697.41,267.94c6.69,5.71,15.2,9.34,24.55,9.88v54.52h78.48v-64.21c0-44.37.01-66.56-.06-110.93,0-1.55-.34-3.7-1.39-4.56-8-6.55-123.43-115.47-131.59-121.85-1.26.8,0,0-.94.73-13.67,10.66-127.88,115.78-127.87,118.56.04,36.1.05,67.54.06,99.56h158.76v18.31Z"/>
      <path class="cls-2" d="M862.15,177.18c-16.04-12.43-167.12-159.73-184.24-172.79-8.2-6.25-13.39-5.67-21.45.72-18.42,14.62-164.54,150.07-177.87,160.51.5-.4,58.35.44,58.35.44,0-32.02-.02,20.1-.06-16,0-2.78,114.21-107.9,127.87-118.56.94-.73-.32.07.94-.73,8.16,6.38,123.59,115.3,131.59,121.85,1.05.86,1.39,3.01,1.39,4.56.07,44.37.06,66.56.06,110.93v64.21h-78.48v-54.52c-9.35-.54-17.86-4.17-24.55-9.88v73.35c3.69,10.37,13.22,16.92,25.82,16.92,25.36,0,50.72,0,76.08,0,16.13,0,24.98-2.1,24.98-17.91,0-58.1-.31-159.82-.31-162.03,9.78,7.71,12.53,12.59,21.55,19.58,4.15,3.22,8.42,6.41,14.31,5,5.6-1.33,9.23-6.82,10.18-12.2.97-5.56-1.66-9.97-6.18-13.47Z"/>
    </g>
  </g>
</svg>