<svg xmlns="http://www.w3.org/2000/svg" viewBox="0 0 414.64 162.5"><defs><style>.cls-1{fill:#f0f5f1;}</style></defs><g id="Capa_2" data-name="Capa 2"><g id="Capa_1-2" data-name="Capa 1"><path class="cls-1" d="M86.16,160.84c2.2-3.36,4.49-6.67,6.73-10l6.87-9.91c4.58-6.6,9.25-13.12,13.93-19.65q14.06-19.53,28.54-38.74t29.23-38.2l14.83-18.93,15-18.81L206.51,0l5.12,6.69L226,25.51c4.75,6.31,9.55,12.59,14.27,18.93q14.17,19,28.09,38.19t27.4,38.71c4.49,6.52,9,13,13.36,19.63l6.58,9.88c2.15,3.34,4.34,6.63,6.45,10-2.71-2.89-5.35-5.85-8-8.77l-7.89-8.88c-5.26-5.92-10.42-11.91-15.59-17.91q-15.44-18-30.48-36.34T230.41,52.06c-4.93-6.17-9.78-12.4-14.68-18.6L201.19,14.75l10.37.09L196.47,33.56,181.23,52.17Q165.92,70.69,150.33,89t-31.58,36.31c-5.34,6-10.69,12-16.13,17.88l-8.17,8.86C91.68,155,89,158,86.16,160.84Z"/><polygon class="cls-1" points="280.51 104.76 410.31 43.14 414.64 41.08 414.08 45.73 399.87 162.5 408.89 45.21 412.65 47.8 285.63 114.98 280.51 104.76"/><polygon class="cls-1" points="126.5 112.46 2 47.81 5.75 45.21 14.77 162.5 0.56 45.73 0 41.13 4.3 43.13 131.55 102.19 126.5 112.46"/></g></g></svg>