<svg xmlns="http://www.w3.org/2000/svg" xmlns:xlink="http://www.w3.org/1999/xlink" id="Capa_1"
    x="0px" y="0px" style="enable-background:new 0 0 100 100;" xml:space="preserve"
    viewBox="13.31 13.3 73.38 73.38"><g> <path  d="M46.89,13.3c2.05,0,4.1,0,6.16,0c0.38,0.05,0.75,0.09,1.13,0.14c5.13,0.62,9.94,2.17,14.4,4.81  c0.43,0.25,0.71,0.21,1.05-0.14c0.99-1.03,2.01-2.04,3.04-3.03c0.65-0.62,1.43-0.85,2.31-0.52c0.88,0.33,1.38,0.98,1.47,1.93  c0.18,1.92,0.37,3.84,0.52,5.76c0.04,0.53,0.25,0.74,0.78,0.78c1.87,0.14,3.75,0.33,5.62,0.49c1.02,0.09,1.75,0.57,2.09,1.56  c0.33,0.98-0.05,1.77-0.73,2.45c-0.91,0.91-1.8,1.84-2.74,2.72c-0.44,0.42-0.49,0.74-0.18,1.28c1.76,2.97,3.03,6.15,3.88,9.49  c0.49,1.94,0.76,3.92,1,5.91c0,2,0,4.01,0,6.01c-0.17,1.18-0.3,2.36-0.51,3.53c-3.87,21.52-25.95,35.58-47.93,28.25  C21.27,79.07,11,61.95,13.76,44.25c2.19-14.07,12.37-25.63,26.06-29.6C42.13,13.98,44.5,13.61,46.89,13.3z M49.79,74.48  c-1.39,0.09-3.05-0.15-4.69-0.47c-14-2.8-22.7-17.3-18.61-30.99c3.64-12.19,15.73-19.54,28.25-17.17c2.7,0.51,5.22,1.47,7.6,2.85  c0.22,0.13,0.44,0.42,0.69,0.27c0.27-0.16,0.07-0.48,0.05-0.72c-0.06-0.71-0.13-1.42-0.18-2.14c-0.06-0.78,0.19-1.46,0.74-2.01  c0.54-0.54,1.08-1.08,1.62-1.62c0.63-0.64,0.64-0.64-0.16-1.06c-6.38-3.34-13.15-4.43-20.25-3.3c-6.91,1.1-12.86,4.17-17.74,9.17  c-6.61,6.77-9.68,14.93-9.26,24.4c0.2,4.38,1.26,8.53,3.2,12.45c6.1,12.34,19.39,19.97,33.8,17.68  c12.06-1.91,20.43-8.78,25.18-19.99c2.1-4.97,2.65-10.21,2.05-15.57c-0.46-4.08-1.67-7.92-3.59-11.54  c-0.25-0.46-0.43-0.55-0.82-0.13c-0.57,0.61-1.18,1.19-1.77,1.77c-0.56,0.55-1.23,0.81-2.01,0.75c-0.71-0.06-1.42-0.13-2.14-0.18  c-0.25-0.02-0.57-0.22-0.73,0.04c-0.16,0.25,0.14,0.48,0.26,0.69c2.86,5.01,3.88,10.37,3,16.06  C72.45,65.68,62.17,74.48,49.79,74.48z M38.44,49.97c0-0.48-0.06-0.96,0.01-1.43c1.15-8.47,10.21-12.89,17.6-8.59  c0.41,0.24,0.65,0.21,0.98-0.12c1.69-1.72,3.39-3.42,5.11-5.11c0.37-0.37,0.36-0.57-0.06-0.88c-4.63-3.37-9.79-4.65-15.42-3.7  c-10.61,1.8-18.03,11.76-16.49,22.68c1.61,11.43,12.84,19.24,24.16,16.76c9.46-2.07,16.48-10.87,15.76-20.99  c-0.28-3.92-1.59-7.42-3.87-10.6c-0.38-0.52-0.6-0.49-1.02-0.06c-1.63,1.67-3.28,3.33-4.96,4.96c-0.41,0.4-0.41,0.68-0.13,1.15  c1.43,2.41,1.9,5.02,1.46,7.78c-0.98,6.08-6.39,10.24-12.66,9.75C43.07,61.13,38.39,55.96,38.44,49.97z M50.14,42.71  c-4.85,0.12-7.72,4.17-7.25,8.09c0.36,3.06,2.89,6.36,7.2,6.36c4.95,0,8.35-4.89,6.77-9.55c-0.32-0.93-0.38-0.95-1.06-0.26  c-1.38,1.38-2.76,2.77-4.16,4.14c-0.74,0.73-1.71,0.87-2.57,0.45c-0.84-0.41-1.31-1.26-1.22-2.24c0.06-0.6,0.36-1.07,0.78-1.49  c1.4-1.4,2.79-2.81,4.21-4.19c0.4-0.39,0.37-0.58-0.16-0.78C51.84,42.92,50.97,42.8,50.14,42.71z M78.19,27.59  c-1.21-0.12-2.36-0.21-3.51-0.35c-1.07-0.14-1.78-0.84-1.92-1.9c-0.13-0.99-0.19-1.99-0.29-2.98c-0.02-0.16,0.06-0.38-0.1-0.46  c-0.22-0.11-0.33,0.13-0.45,0.25c-1.37,1.36-2.73,2.72-4.1,4.09c-0.23,0.23-0.38,0.45-0.35,0.81c0.14,1.49,0.26,2.99,0.37,4.48  c0.03,0.45,0.25,0.61,0.68,0.64c1.45,0.1,2.89,0.21,4.34,0.33c0.3,0.02,0.56,0.02,0.79-0.21c1.46-1.47,2.93-2.93,4.39-4.4  C78.1,27.82,78.12,27.72,78.19,27.59z"></path></g></svg>