<svg width="193" height="183" viewBox="0 0 193 183" fill="none" xmlns="http://www.w3.org/2000/svg">
<g clip-path="url(#clip0_94_17)">
<path d="M173.656 -21.0001L-22 162.147L-2.86523 182.589L192.79 -0.558478L173.656 -21.0001Z" fill="#04B71E"/>
<path d="M18.8259 152.696L8.88574 142.077L16.0411 135.379L17.7738 137.23L12.8636 141.826L15.2321 144.357L19.7743 140.105L21.507 141.956L16.9649 146.208L19.3383 148.743L24.2693 144.128L26.002 145.979L18.8259 152.696ZM26.7081 125.394L36.6482 136.013L34.709 137.828L23.8329 135.469L23.7551 135.542L30.0114 142.226L27.7662 144.327L17.8261 133.708L19.7964 131.864L30.6314 134.252L30.7248 134.164L24.4733 127.486L26.7081 125.394ZM44.7919 115.442L42.5208 117.567C42.2043 117.312 41.8753 117.131 41.5339 117.022C41.1892 116.91 40.8405 116.867 40.488 116.892C40.1354 116.918 39.7873 117.01 39.4437 117.169C39.1036 117.326 38.7814 117.546 38.4772 117.831C37.9276 118.345 37.5766 118.93 37.4244 119.585C37.2689 120.236 37.3215 120.927 37.5821 121.655C37.8396 122.381 38.3129 123.112 39.0021 123.848C39.7107 124.605 40.4184 125.136 41.1252 125.44C41.8355 125.742 42.5175 125.833 43.1714 125.714C43.8252 125.595 44.42 125.285 44.9558 124.783C45.2565 124.502 45.4975 124.201 45.6789 123.882C45.8637 123.56 45.9852 123.229 46.0433 122.889C46.0982 122.546 46.0878 122.203 46.0121 121.858C45.9398 121.511 45.7969 121.171 45.5834 120.839L47.8642 118.724C48.2617 119.266 48.5548 119.874 48.7436 120.547C48.9327 121.213 48.9968 121.908 48.936 122.633C48.8755 123.351 48.6709 124.068 48.3223 124.784C47.974 125.492 47.4594 126.165 46.7784 126.803C45.8312 127.69 44.7837 128.268 43.6358 128.538C42.4914 128.805 41.323 128.735 40.1305 128.327C38.9415 127.916 37.8066 127.133 36.7258 125.979C35.6419 124.821 34.9375 123.632 34.6126 122.412C34.2878 121.191 34.2997 120.019 34.6483 118.895C34.9938 117.768 35.6331 116.767 36.5664 115.894C37.1817 115.318 37.833 114.87 38.5202 114.551C39.2109 114.229 39.9154 114.043 40.634 113.993C41.3493 113.939 42.0581 114.031 42.7604 114.269C43.4662 114.503 44.1433 114.894 44.7919 115.442ZM57.6502 106.392C58.7342 107.55 59.4369 108.741 59.7582 109.964C60.0831 111.184 60.0694 112.361 59.717 113.495C59.3649 114.622 58.7205 115.624 57.7837 116.501C56.84 117.385 55.7925 117.963 54.6412 118.236C53.4898 118.51 52.3162 118.444 51.1202 118.04C49.9243 117.635 48.786 116.856 47.7052 115.701C46.6213 114.543 45.9169 113.354 45.592 112.134C45.2672 110.914 45.2808 109.74 45.6329 108.613C45.9818 107.482 46.6281 106.475 47.5718 105.592C48.5085 104.715 49.5526 104.14 50.7039 103.866C51.8555 103.586 53.0292 103.648 54.2252 104.053C55.4246 104.454 56.5662 105.234 57.6502 106.392ZM55.374 108.523C54.6718 107.773 53.9673 107.245 53.2605 106.94C52.5572 106.632 51.8787 106.535 51.2251 106.647C50.5715 106.759 49.9734 107.07 49.4307 107.578C48.888 108.086 48.539 108.662 48.3837 109.307C48.2284 109.952 48.2795 110.637 48.5369 111.362C48.7978 112.084 49.2793 112.82 49.9815 113.57C50.6836 114.32 51.3864 114.849 52.0897 115.157C52.7966 115.462 53.4768 115.558 54.1303 115.446C54.7839 115.334 55.3821 115.023 55.9248 114.515C56.4675 114.007 56.8165 113.431 56.9718 112.786C57.127 112.141 57.0742 111.458 56.8133 110.736C56.5559 110.01 56.0761 109.273 55.374 108.523ZM63.2253 91.2113L73.1654 101.83L71.2262 103.646L60.35 101.287L60.2723 101.359L66.5285 108.043L64.2834 110.145L54.3432 99.5259L56.3136 97.6811L67.1486 100.069L67.2419 99.9819L60.9905 93.3032L63.2253 91.2113ZM73.6996 87.1367C73.2666 86.7573 72.7844 86.5989 72.2531 86.6617C71.7217 86.7246 71.1864 87.0084 70.6472 87.5132C70.2808 87.8562 70.0199 88.1976 69.8647 88.5375C69.7062 88.874 69.6436 89.1952 69.6771 89.5011C69.714 89.8038 69.8392 90.0692 70.0528 90.2974C70.2238 90.494 70.4189 90.6227 70.638 90.6835C70.8605 90.7411 71.0981 90.749 71.3507 90.7071C71.6001 90.6617 71.8624 90.5816 72.1375 90.4667C72.4094 90.3484 72.6854 90.2068 72.9655 90.0418L74.1331 89.3769C74.6934 89.047 75.248 88.7873 75.797 88.5977C76.3459 88.4082 76.8802 88.3069 77.3999 88.2939C77.9195 88.2809 78.4173 88.3727 78.8932 88.5693C79.3725 88.7627 79.821 89.079 80.2386 89.5182C80.8435 90.1713 81.205 90.8901 81.3231 91.6745C81.4415 92.4522 81.316 93.2604 80.9466 94.0991C80.5775 94.9311 79.9608 95.7515 79.0966 96.5605C78.2393 97.3629 77.3697 97.9305 76.4878 98.2631C75.6093 98.5926 74.751 98.6664 73.9128 98.4846C73.0749 98.2962 72.2897 97.8281 71.5573 97.0803L73.7299 95.0466C74.0873 95.38 74.4676 95.5819 74.8706 95.6521C75.2738 95.7157 75.6842 95.6656 76.1016 95.5018C76.5193 95.3314 76.9217 95.0649 77.3088 94.7025C77.6891 94.3466 77.9674 93.9823 78.1439 93.6096C78.3238 93.2336 78.3993 92.8744 78.3704 92.5317C78.3415 92.1891 78.2074 91.8899 77.9679 91.6341C77.7446 91.3955 77.4861 91.2614 77.1923 91.2316C76.902 91.1986 76.5686 91.2512 76.1922 91.3895C75.8192 91.5246 75.3955 91.7267 74.921 91.9957L73.4929 92.7878C72.3938 93.4081 71.3682 93.7292 70.4161 93.7514C69.464 93.7735 68.6224 93.3907 67.8913 92.6027C67.286 91.963 66.9313 91.2411 66.8272 90.4371C66.7266 89.6298 66.8543 88.8066 67.2103 87.9675C67.5663 87.1284 68.1314 86.3464 68.9057 85.6216C69.6939 84.8839 70.5079 84.3748 71.348 84.0943C72.1915 83.8106 73.0023 83.7553 73.7804 83.9284C74.5586 84.1015 75.2489 84.4995 75.8514 85.1224L73.6996 87.1367ZM75.9763 82.7485L74.2436 80.8974L82.9649 72.7338L84.6976 74.5848L81.4465 77.628L89.654 86.396L87.4347 88.4733L79.2273 79.7053L75.9763 82.7485ZM94.3413 82.0083L84.4011 71.3893L88.5907 67.4676C89.3926 66.7169 90.2113 66.2197 91.0468 65.9759C91.8825 65.7255 92.6933 65.7221 93.4791 65.9658C94.2652 66.2028 94.9867 66.6722 95.6436 67.3739C96.3036 68.0791 96.7194 68.8281 96.8909 69.621C97.0589 70.4104 96.9808 71.2102 96.6559 72.0201C96.3345 72.8269 95.7658 73.612 94.9501 74.3756L92.1449 77.0014L90.4559 75.197L92.8981 72.9111C93.3267 72.5098 93.6277 72.1178 93.8012 71.7349C93.9746 71.3521 94.0204 70.9783 93.9387 70.6138C93.8604 70.2461 93.6578 69.8877 93.331 69.5385C93.001 69.186 92.6518 68.9551 92.2836 68.8458C91.9188 68.7333 91.5348 68.7491 91.1314 68.8932C90.7282 69.0306 90.3106 69.3016 89.8785 69.706L88.3644 71.1232L96.5864 79.9067L94.3413 82.0083ZM95.5524 71.8078L102.715 74.1698L100.237 76.4898L93.131 74.0744L95.5524 71.8078ZM100.542 56.2802L102.787 54.1785L109.243 61.0746C109.968 61.8489 110.417 62.6996 110.591 63.6266C110.768 64.5503 110.678 65.4835 110.322 66.4265C109.963 67.366 109.344 68.2468 108.466 69.0686C107.585 69.8937 106.663 70.4545 105.702 70.751C104.738 71.0441 103.801 71.0718 102.891 70.8341C101.981 70.5963 101.163 70.0904 100.439 69.3161L93.9831 62.4198L96.2283 60.3182L102.504 67.0225C102.883 67.427 103.307 67.704 103.778 67.8535C104.252 67.9998 104.736 68.0107 105.229 67.8863C105.722 67.7619 106.185 67.4976 106.617 67.0931C107.053 66.6854 107.347 66.2411 107.5 65.7605C107.657 65.2766 107.676 64.7949 107.558 64.3153C107.443 63.8325 107.197 63.3889 106.818 62.9845L100.542 56.2802ZM117.484 47.3967L115.213 49.5225C114.897 49.2675 114.568 49.0859 114.226 48.9775C113.881 48.8656 113.533 48.8223 113.18 48.8475C112.828 48.8727 112.48 48.965 112.136 49.1245C111.796 49.2808 111.474 49.5012 111.169 49.7859C110.62 50.3004 110.269 50.8852 110.117 51.5401C109.961 52.1915 110.014 52.8817 110.274 53.6105C110.532 54.3359 111.005 55.0667 111.694 55.803C112.403 56.56 113.111 57.0908 113.817 57.3955C114.528 57.697 115.21 57.7883 115.864 57.6692C116.517 57.5501 117.112 57.2398 117.648 56.7382C117.949 56.4567 118.19 56.1565 118.371 55.8375C118.556 55.5154 118.677 55.1844 118.736 54.8446C118.79 54.5014 118.78 54.1576 118.704 53.8134C118.632 53.466 118.489 53.1263 118.276 52.7943L120.556 50.6789C120.954 51.2213 121.247 51.8289 121.436 52.5018C121.625 53.1679 121.689 53.8635 121.628 54.5884C121.568 55.3066 121.363 56.0234 121.015 56.7388C120.666 57.4476 120.152 58.1205 119.471 58.758C118.523 59.6446 117.476 60.2231 116.328 60.4934C115.184 60.7604 114.015 60.69 112.823 60.2822C111.634 59.8711 110.499 59.0882 109.418 57.9337C108.334 56.7757 107.63 55.5866 107.305 54.3666C106.98 53.1465 106.992 51.9745 107.341 50.8504C107.686 49.7228 108.325 48.7223 109.259 47.8487C109.874 47.2727 110.525 46.8253 111.212 46.5063C111.903 46.184 112.608 45.9979 113.326 45.948C114.041 45.8945 114.75 45.9866 115.453 46.2242C116.158 46.4585 116.836 46.8494 117.484 47.3967ZM128.464 37.1193L126.192 39.245C125.876 38.99 125.547 38.8084 125.205 38.7C124.861 38.5881 124.512 38.5448 124.16 38.57C123.807 38.5952 123.459 38.6875 123.115 38.847C122.775 39.0032 122.453 39.2237 122.149 39.5085C121.599 40.0229 121.248 40.6077 121.096 41.2626C120.94 41.9141 120.993 42.6042 121.254 43.333C121.511 44.0584 121.985 44.7892 122.674 45.5255C123.382 46.2825 124.09 46.8133 124.797 47.118C125.507 47.4195 126.189 47.5108 126.843 47.3917C127.497 47.2726 128.092 46.9623 128.627 46.4608C128.928 46.1792 129.169 45.879 129.351 45.5601C129.535 45.2379 129.657 44.9069 129.715 44.5671C129.77 44.2239 129.759 43.8801 129.684 43.5359C129.611 43.1885 129.469 42.8488 129.255 42.5168L131.536 40.4014C131.933 40.9438 132.226 41.5514 132.415 42.2243C132.604 42.8905 132.668 43.586 132.608 44.3109C132.547 45.0291 132.343 45.7459 131.994 46.4613C131.646 47.17 131.131 47.8431 130.45 48.4805C129.503 49.3671 128.455 49.9456 127.307 50.2159C126.163 50.483 124.995 50.4126 123.802 50.0047C122.613 49.5936 121.478 48.8108 120.397 47.6562C119.314 46.4982 118.609 45.3091 118.284 44.0891C117.959 42.8691 117.971 41.6971 118.32 40.573C118.665 39.4455 119.305 38.4449 120.238 37.5712C120.853 36.9953 121.505 36.5478 122.192 36.2288C122.882 35.9066 123.587 35.7205 124.306 35.6705C125.021 35.6171 125.73 35.7091 126.432 35.9467C127.138 36.1811 127.815 36.5719 128.464 37.1193ZM128.839 29.7929L138.779 40.4119L136.534 42.5135L126.593 31.8945L128.839 29.7929ZM145.414 24.2388C146.498 25.3968 147.201 26.5874 147.522 27.8107C147.847 29.0307 147.833 30.2079 147.481 31.3419C147.129 32.4692 146.484 33.4713 145.548 34.3482C144.604 35.2315 143.556 35.81 142.405 36.0835C141.254 36.357 140.08 36.2914 138.884 35.8867C137.688 35.4821 136.55 34.7025 135.469 33.548C134.385 32.39 133.681 31.201 133.356 29.9809C133.031 28.7609 133.045 27.5872 133.397 26.4599C133.746 25.3291 134.392 24.3221 135.336 23.4388C136.272 22.5619 137.317 21.9866 138.468 21.7131C139.619 21.4329 140.793 21.4951 141.989 21.8997C143.189 22.3011 144.33 23.0808 145.414 24.2388ZM143.138 26.3695C142.436 25.6194 141.731 25.092 141.024 24.7873C140.321 24.4793 139.643 24.3815 138.989 24.4939C138.335 24.6064 137.737 24.9166 137.195 25.4246C136.652 25.9326 136.303 26.509 136.148 27.1537C135.992 27.7985 136.043 28.4836 136.301 29.209C136.562 29.9311 137.043 30.6672 137.745 31.4174C138.448 32.1675 139.15 32.6965 139.854 33.0045C140.56 33.3092 141.241 33.4053 141.894 33.2929C142.548 33.1805 143.146 32.8703 143.689 32.3623C144.231 31.8543 144.58 31.2778 144.736 30.6331C144.891 29.9883 144.838 29.3049 144.577 28.5827C144.32 27.8574 143.84 27.1196 143.138 26.3695ZM133.717 23.2998L132.608 19.9117L134.651 17.9993L135.278 21.839L133.717 23.2998ZM150.989 9.05835L160.929 19.6774L158.99 21.4927L148.114 19.1336L148.036 19.2064L154.292 25.8899L152.047 27.9916L142.107 17.3726L144.078 15.5281L154.913 17.9159L155.006 17.8286L148.754 11.1502L150.989 9.05835Z" fill="white"/>
</g>
<defs>
<clipPath id="clip0_94_17">
<rect width="214.79" height="203.59" fill="white" transform="translate(-22 -21)"/>
</clipPath>
</defs>
</svg>
