<svg width="143" height="133" viewBox="0 0 143 133" fill="none" xmlns="http://www.w3.org/2000/svg">
<g clip-path="url(#clip0_94_21)">
<path d="M123.091 -22.0004L-20 111.943L-0.86523 132.385L142.226 -1.55876L123.091 -22.0004Z" fill="#04B71E"/>
<path d="M20.8259 102.492L10.8857 91.8733L18.0411 85.1754L19.7738 87.0265L14.8636 91.6228L17.2321 94.1531L21.7743 89.9014L23.507 91.7525L18.9649 96.0042L21.3383 98.5401L26.2693 93.9239L28.002 95.775L20.8259 102.492ZM28.7081 75.1904L38.6482 85.8094L36.709 87.6245L25.8329 85.2656L25.7551 85.3384L32.0114 92.0219L29.7662 94.1236L19.8261 83.5046L21.7964 81.6602L32.6314 84.048L32.7248 83.9606L26.4733 77.2823L28.7081 75.1904ZM31.8914 75.6836L30.1586 73.8326L38.8799 65.6688L40.6127 67.5199L37.3616 70.5631L45.569 79.3311L43.3498 81.4084L35.1424 72.6404L31.8914 75.6836ZM50.2563 74.9434L40.3162 64.3244L44.5057 60.4027C45.3077 59.652 46.1264 59.1548 46.9619 58.911C47.7976 58.6606 48.6083 58.6572 49.3942 58.9009C50.1803 59.1379 50.9018 59.6073 51.5586 60.309C52.2187 61.0142 52.6345 61.7632 52.8059 62.5561C52.9742 63.3455 52.8958 64.1452 52.571 64.9552C52.2495 65.7619 51.6809 66.5471 50.8651 67.3108L48.06 69.9365L46.371 68.1321L48.8131 65.8461C49.2418 65.4449 49.5428 65.0528 49.7162 64.67C49.8897 64.2871 49.9355 63.9134 49.8537 63.549C49.7754 63.1812 49.5729 62.8228 49.2461 62.4737C48.916 62.1211 48.5669 61.8901 48.1987 61.7808C47.8339 61.6683 47.4498 61.6841 47.0464 61.8282C46.6433 61.9656 46.2256 62.2366 45.7935 62.6411L44.2795 64.0583L52.5015 72.8418L50.2563 74.9434ZM51.4675 64.7429L58.6302 67.1049L56.1518 69.4249L49.0461 67.0095L51.4675 64.7429ZM59.8383 65.974L49.8982 55.355L57.0536 48.657L58.7863 50.5081L53.8761 55.1044L56.2446 57.6348L60.7867 53.383L62.5195 55.2341L57.9774 59.4858L60.3508 62.0213L65.2818 57.4056L67.0145 59.2566L59.8383 65.974ZM69.093 43.8275C68.7842 43.6431 68.4735 43.5156 68.1609 43.445C67.8451 43.3709 67.5291 43.3555 67.2128 43.3986C66.8967 43.4351 66.5837 43.5303 66.2738 43.6842C65.9673 43.8349 65.6689 44.0461 65.3785 44.3179C64.8358 44.8259 64.485 45.4072 64.326 46.0619C64.1705 46.7134 64.2198 47.4034 64.4737 48.132C64.7245 48.8571 65.1961 49.5896 65.8885 50.3293C66.581 51.0691 67.2822 51.593 67.9923 51.9012C68.7023 52.2094 69.3908 52.3075 70.0578 52.1955C70.7215 52.0801 71.3334 51.7603 71.8934 51.2361C72.4015 50.7605 72.7512 50.2645 72.9424 49.7482C73.1339 49.2253 73.1694 48.7089 73.0489 48.1991C72.9318 47.686 72.6613 47.2031 72.2375 46.7503L72.7568 46.3906L70.0191 48.9533L68.4369 47.2629L72.8805 43.1034L74.1327 44.4411C75.0063 45.3745 75.56 46.3609 75.7936 47.4003C76.0241 48.4364 75.9635 49.4594 75.6119 50.4695C75.2571 51.4762 74.6337 52.3969 73.7419 53.2317C72.7464 54.1636 71.6664 54.7627 70.5019 55.0291C69.3341 55.292 68.1592 55.2147 66.9771 54.7971C65.7952 54.3729 64.6801 53.6008 63.6317 52.4808C62.826 51.6201 62.2321 50.7362 61.85 49.8292C61.4682 48.9154 61.2836 48.0116 61.2964 47.1176C61.3092 46.2236 61.5014 45.3724 61.8731 44.5639C62.2449 43.7555 62.7816 43.0228 63.4833 42.366C64.0848 41.803 64.7273 41.3669 65.4108 41.0579C66.0911 40.7453 66.7806 40.5604 67.4792 40.5031C68.1814 40.4425 68.8658 40.512 69.5325 40.7116C70.196 40.9077 70.81 41.2345 71.3744 41.6919L69.093 43.8275ZM81.3888 45.8013L78.9829 48.0533L72.7086 34.0028L75.6019 31.2945L89.2027 38.4869L86.7968 40.739L76.4682 35.0365L76.3853 35.1141L81.3888 45.8013ZM77.3313 41.7681L83.0141 36.4485L84.6547 38.2011L78.9718 43.5206L77.3313 41.7681ZM94.2452 33.7668L90.4808 37.2905L80.5407 26.6715L84.3362 23.1187C85.4043 22.1188 86.5228 21.4707 87.6916 21.1743C88.8572 20.8745 90.0179 20.9262 91.1737 21.3295C92.3329 21.7296 93.4287 22.4809 94.4609 23.5836C95.4963 24.6898 96.177 25.8361 96.5029 27.0227C96.8324 28.206 96.8072 29.3743 96.4274 30.5275C96.0511 31.6775 95.3237 32.7573 94.2452 33.7668ZM90.9253 33.2653L92.3512 31.9305C93.0149 31.3093 93.4631 30.6692 93.6959 30.0102C93.9289 29.3446 93.9266 28.6561 93.6888 27.9448C93.4512 27.2268 92.9619 26.472 92.2209 25.6804C91.4864 24.8957 90.7704 24.3629 90.0728 24.0819C89.3787 23.7977 88.6953 23.75 88.0224 23.9388C87.3496 24.1277 86.6813 24.5327 86.0176 25.154L84.5865 26.4936L90.9253 33.2653ZM105.892 12.9028C106.976 14.0608 107.679 15.2514 108 16.4747C108.325 17.6947 108.311 18.8717 107.959 20.0057C107.607 21.1331 106.962 22.1352 106.026 23.0121C105.082 23.8954 104.034 24.4739 102.883 24.7474C101.732 25.0209 100.558 24.9553 99.3619 24.5507C98.1661 24.1461 97.0277 23.3665 95.947 22.212C94.8631 21.054 94.1586 19.8649 93.8338 18.6449C93.5089 17.4249 93.5226 16.2512 93.8747 15.1239C94.2236 13.9931 94.8698 12.986 95.8135 12.1027C96.7503 11.2258 97.7944 10.6506 98.9457 10.3771C100.097 10.0969 101.271 10.1591 102.467 10.5637C103.666 10.9651 104.808 11.7448 105.892 12.9028ZM103.616 15.0335C102.914 14.2834 102.209 13.756 101.502 13.4512C100.799 13.1433 100.121 13.0455 99.4669 13.1579C98.8133 13.2703 98.2152 13.5805 97.6725 14.0886C97.1298 14.5966 96.7808 15.1729 96.6255 15.8177C96.4702 16.4624 96.5213 17.1475 96.7787 17.8729C97.0396 18.595 97.5211 19.3311 98.2233 20.0812C98.9254 20.8313 99.6279 21.3604 100.332 21.6683C101.038 21.9731 101.719 22.0692 102.372 21.9568C103.026 21.8444 103.624 21.5342 104.167 21.0262C104.709 20.5182 105.058 19.9418 105.214 19.297C105.369 18.6523 105.316 17.9689 105.055 17.2467C104.798 16.5213 104.318 15.7836 103.616 15.0335Z" fill="white"/>
</g>
<defs>
<clipPath id="clip0_94_21">
<rect width="162.23" height="154.39" fill="white" transform="translate(-20 -22)"/>
</clipPath>
</defs>
</svg>
