<svg width="216" height="155" viewBox="0 0 216 155" fill="none" xmlns="http://www.w3.org/2000/svg">
<g clip-path="url(#clip0_95_35)">
<mask id="mask0_95_35" style="mask-type:luminance" maskUnits="userSpaceOnUse" x="-64" y="-56" width="280" height="211">
<path d="M216 -56H-64V155H216V-56Z" fill="white"/>
</mask>
<g mask="url(#mask0_95_35)">
<path d="M189.028 -55.9999L-64 115.586L-37.6157 154.493L215.412 -17.0926L189.028 -55.9999Z" fill="#04B71E"/>
<path d="M35.6156 74.0169L27.4519 61.9779L35.846 56.2859L37.4481 58.6489L31.9641 62.3679L33.6383 64.8369L38.6931 61.4089L40.3001 63.7779L35.2447 67.2059L36.9231 69.6799L42.4071 65.9609L44.0101 68.3239L35.6156 74.0169ZM47.9141 48.1019L56.0771 60.1409L53.6091 61.8149L44.1061 58.1159L44.0301 58.1669L48.7411 65.1149L45.8321 67.0889L37.6681 55.0499L40.1721 53.3519L49.6141 57.0749L49.7141 57.0079L45.0101 50.0709L47.9141 48.1019ZM50.9521 49.4919L49.3491 47.1289L59.5251 40.2285L61.1271 42.5915L57.4771 45.0669L64.0381 54.7419L61.1691 56.688L54.6081 47.0119L50.9521 49.4919ZM69.1091 51.3029L60.9461 39.2648L65.9191 35.8925C66.8201 35.2813 67.7081 34.9164 68.5831 34.7979C69.4591 34.6728 70.2801 34.7911 71.0461 35.1527C71.8091 35.5105 72.4701 36.1008 73.0281 36.9238C73.5941 37.7585 73.8931 38.5913 73.9241 39.4224C73.9531 40.2495 73.7361 41.0431 73.2731 41.8032C72.8081 42.5594 72.1171 43.2484 71.2001 43.8702L68.0551 46.0029L66.5001 43.7104L69.1041 41.9445C69.5431 41.6469 69.8711 41.3415 70.0881 41.0286C70.3061 40.709 70.4121 40.3799 70.4051 40.0411C70.3961 39.6984 70.2651 39.341 70.0131 38.9688C69.7601 38.5965 69.4751 38.3406 69.1581 38.2013C68.8371 38.058 68.4871 38.0266 68.1071 38.1071C67.7241 38.1837 67.3151 38.3695 66.8801 38.6644L65.4461 39.6371L72.0191 49.3299L69.1091 51.3029ZM72.1561 41.2053L78.8851 44.674L75.7101 46.827L69.0401 43.318L72.1561 41.2053ZM80.0691 43.8711L71.9051 31.8326L80.2991 26.1404L81.9021 28.5034L76.4181 32.2225L78.0921 34.6913L83.1471 31.2632L84.7531 33.6321L79.6981 37.0602L81.3761 39.535L86.8611 35.8158L88.4631 38.1788L80.0691 43.8711ZM92.689 23.4797C92.455 23.278 92.209 23.127 91.9521 23.0266C91.6931 22.9223 91.4241 22.8673 91.1451 22.8616C90.8671 22.8559 90.5841 22.9021 90.2951 23.0003C90.0051 23.0945 89.7141 23.2399 89.4241 23.4366C88.8401 23.8325 88.4301 24.3164 88.1951 24.8882C87.9631 25.4574 87.9151 26.0908 88.0501 26.7883C88.1831 27.482 88.5101 28.2129 89.0311 28.9809C89.5541 29.7529 90.1121 30.3356 90.7051 30.7288C91.2981 31.122 91.9031 31.3182 92.52 31.3173C93.137 31.3163 93.748 31.1112 94.351 30.702C94.884 30.3406 95.276 29.9489 95.528 29.5266C95.78 29.0978 95.894 28.6575 95.868 28.206C95.842 27.7544 95.682 27.3112 95.387 26.8762L95.971 26.5742L93.044 28.5592L91.6051 26.4372L96.795 22.9174L97.876 24.5104C98.606 25.5881 99.003 26.6664 99.065 27.7454C99.132 28.8217 98.905 29.8367 98.384 30.7903C97.868 31.7412 97.092 32.5675 96.058 33.2691C94.909 34.0477 93.732 34.4831 92.524 34.5754C91.3171 34.6677 90.1581 34.4181 89.0471 33.8267C87.9341 33.2314 86.9471 32.2989 86.0861 31.0292C85.4161 30.0417 84.9691 29.0662 84.7451 28.1027C84.5181 27.1353 84.4871 26.2071 84.6501 25.3181C84.8181 24.4264 85.1561 23.6082 85.6631 22.8635C86.1751 22.1161 86.8321 21.4701 87.6351 20.9253C88.3331 20.4523 89.0491 20.1124 89.7841 19.9057C90.5231 19.6963 91.2481 19.617 91.9571 19.6679C92.671 19.7161 93.343 19.8927 93.973 20.1976C94.603 20.5026 95.157 20.9309 95.634 21.4827L92.689 23.4797ZM105.207 26.8243L102.08 28.9449L97.978 14.152L101.852 11.5251L114.077 20.8091L110.95 22.9298L102.016 15.8419L101.922 15.9056L105.207 26.8243ZM101.577 22.3695L108.113 17.9369L109.612 20.1471L103.076 24.5798L101.577 22.3695ZM34.4705 80.1749L42.6341 92.214L39.7241 94.187L31.5609 82.1479L34.4705 80.1749ZM46.5431 71.9889L54.7061 84.0269L52.2381 85.701L42.7351 82.0019L42.6591 82.0539L47.3701 89.0019L44.4611 90.975L36.2971 78.9369L38.8011 77.238L48.2431 80.962L48.3431 80.8939L43.6391 73.9579L46.5431 71.9889ZM48.3721 70.7479L51.9761 68.3039L60.0871 73.6849L60.2281 73.589L58.2301 64.063L61.8331 61.6199L69.9971 73.658L67.1641 75.5789L62.1491 68.1849L62.0491 68.2529L64.1201 77.5319L62.3091 78.7599L54.4271 73.3609L54.3271 73.4289L59.3691 80.865L56.5361 82.7859L48.3721 70.7479ZM71.8121 72.4269L63.6481 60.3889L72.0421 54.6969L73.6451 57.0599L68.1601 60.7789L69.8341 63.2479L74.8901 59.8199L76.4961 62.188L71.4411 65.6169L73.1191 68.091L78.6031 64.3719L80.2061 66.7349L71.8121 72.4269ZM86.4781 62.4819L82.0281 65.4989L73.8641 53.4609L78.3081 50.4469C79.5351 49.6159 80.7541 49.1399 81.9671 49.0219C83.1811 48.8969 84.3341 49.1209 85.4271 49.6959C86.5181 50.2659 87.4871 51.1769 88.3351 52.4269C89.1851 53.6809 89.6751 54.9219 89.8041 56.1499C89.9371 57.3759 89.7231 58.5309 89.1601 59.6159C88.5941 60.6979 87.7001 61.6529 86.4781 62.4819ZM83.2561 61.0459L84.6841 60.077C85.3581 59.62 85.8511 59.1199 86.1631 58.5759C86.4771 58.0259 86.5781 57.4109 86.4661 56.7319C86.3551 56.0459 86.0071 55.2699 85.4191 54.4039C84.8321 53.5379 84.2431 52.9309 83.6521 52.5819C83.0581 52.2289 82.4471 52.0999 81.8191 52.1949C81.1921 52.2819 80.5331 52.5599 79.8441 53.0279L78.4561 53.9679L83.2561 61.0459ZM88.8651 43.2882L97.029 55.327L94.119 57.2999L85.9561 45.2609L88.8651 43.2882ZM101.46 52.3219L98.333 54.4429L94.231 39.6498L98.104 37.0229L110.33 46.3069L107.203 48.4279L98.269 41.3396L98.175 41.4035L101.46 52.3219ZM97.83 47.8669L104.366 43.4347L105.865 45.6449L99.328 50.0779L97.83 47.8669ZM103.168 37.0391L101.565 34.6761L111.74 27.776L113.343 30.1391L109.692 32.6145L116.254 42.2899L113.385 44.2349L106.824 34.5597L103.168 37.0391ZM122.426 38.1044L119.299 40.2251L115.197 25.4322L119.07 22.8053L131.296 32.0893L128.169 34.21L119.234 27.122L119.14 27.1857L122.426 38.1044ZM118.796 33.6497L125.332 29.2171L126.831 31.4272L120.294 35.8599L118.796 33.6497Z" fill="white"/>
</g>
</g>
<defs>
<clipPath id="clip0_95_35">
<rect width="280" height="211" fill="white" transform="translate(-64 -56)"/>
</clipPath>
</defs>
</svg>
