<svg xmlns="http://www.w3.org/2000/svg" xmlns:xlink="http://www.w3.org/1999/xlink" id="Capa_1" x="0px" y="0px" viewBox="0 0 100 100" style="enable-background:new 0 0 100 100;" xml:space="preserve"><style type="text/css">	.st0{fill:#FFFFFF;}	.st1{fill:#00C64F;}</style><path class="st0" d="M89.74,0.35H10.26c-5.47,0-9.91,4.44-9.91,9.91v79.49c0,5.47,4.44,9.91,9.91,9.91h79.49 c5.47,0,9.91-4.44,9.91-9.91V10.26C99.65,4.79,95.21,0.35,89.74,0.35z"></path><g>	<path class="st1" d="M37.69,62.31c-2.57-2.14-5.48-4.57-7.94-7.34c-0.75-0.85-1.83-1.3-3.19-1.34c-1.18-0.03-2.22,0.35-3.21,1.19  l0-0.67c0-1.22,0.01-2.44,0.01-3.67c0.01-2.94,0.02-5.97-0.01-8.96c-0.01-1.49-0.19-3.68-1.53-5.58c-1.23-1.73-3.24-2.43-5.25-1.82  c-2.03,0.61-3.49,2.46-3.57,4.48c-0.06,1.57-0.1,2.99-0.14,4.35c-0.05,2.1-0.1,4.2-0.16,6.29c-0.06,2.3-0.11,4.6-0.17,6.9  c0,0.12-0.03,0.25-0.05,0.38c-0.01,0.07-0.03,0.14-0.04,0.22l0,6.29l0.01,0.08c0.43,2.01,1.47,3.76,3.28,5.51  c1.77,1.72,3.54,3.5,5.25,5.22c1.12,1.13,2.29,2.29,3.44,3.43c0.35,0.35,0.49,0.67,0.48,1.14c-0.03,2.46-0.02,4.9-0.01,7.26  c0.01,1.25,0.59,1.86,1.79,1.86c2.02,0,4.04,0.01,6.04,0.01c2.12,0,4.22,0,6.29-0.01c1.13,0,1.75-0.62,1.76-1.74  c0-1.22,0.01-2.45,0.01-3.67c0.01-4.34,0.02-8.83-0.03-13.24C40.72,66.19,39.69,63.98,37.69,62.31z M28.13,80.82  c0-1,0-2.02,0.01-3.03c0.01-0.9-0.28-1.62-0.93-2.26c-1.34-1.33-2.7-2.69-4.02-4.01c-1.81-1.82-3.68-3.69-5.55-5.52  c-1.61-1.57-2.26-3.3-2.04-5.45c0.11-1.09,0.11-2.2,0.12-3.27c0-0.7,0.01-1.41,0.04-2.12c0.08-1.81,0.11-3.65,0.14-5.43  c0.02-1.07,0.04-2.18,0.07-3.27c0.06-2.34,0.15-4.72,0.24-7.02l0.03-0.8c0.02-0.63,0.54-1.24,1.22-1.45  c0.71-0.21,1.32-0.01,1.73,0.56c0.6,0.84,0.89,1.9,0.9,3.23l0.01,1.83c0.03,3.61,0.06,7.34-0.03,11.01  c-0.07,2.9,0.92,5.35,3.02,7.51c2.07,2.12,4.21,4.25,6.27,6.3c0.56,0.56,1.12,1.11,1.68,1.67c0.43,0.43,0.89,0.65,1.33,0.64  c0.39-0.01,0.77-0.19,1.09-0.52c0.67-0.71,0.61-1.57-0.17-2.35c-1.91-1.92-3.83-3.84-5.74-5.75l-1.69-1.69  c-0.36-0.36-0.64-0.66-0.73-1.08c-0.14-0.64,0.11-1.25,0.64-1.54c0.55-0.31,1.25-0.21,1.73,0.24c0.24,0.23,0.46,0.47,0.7,0.73  c0.11,0.12,0.22,0.24,0.33,0.36c2.06,2.21,4.4,4.17,6.66,6.06l0.42,0.35c1.25,1.05,1.88,2.37,1.92,4.04  c0.04,1.76,0.03,3.55,0.02,5.28c0,0.75-0.01,1.5-0.01,2.25v0.36h0.02c0,0.57,0,1.13,0,1.7c0,1.82-0.01,3.71,0.01,5.57  c0,0.29-0.04,0.38-0.07,0.4c-0.02,0.02-0.1,0.07-0.39,0.07c-1.39-0.01-2.8-0.02-4.23-0.02c-1.41,0-2.84,0.01-4.27,0.02  c-0.3,0-0.38-0.04-0.41-0.07c-0.02-0.02-0.07-0.1-0.07-0.39C28.14,82.91,28.14,81.85,28.13,80.82z"></path>	<path class="st1" d="M67.66,46.27c3.19-4.56,4.47-10.04,3.62-15.42c-1.23-7.79-5.6-13.44-12.97-16.79c-1.98-0.9-4.11-1.3-5.95-1.6  l-4.7,0l-0.06,0.01c-0.19,0.03-0.37,0.07-0.56,0.1c-0.4,0.07-0.82,0.14-1.23,0.23C34.36,15.19,27,25.67,28.67,37.15  c0.84,5.75,4.06,11,8.84,14.38c3.67,2.6,7.95,3.95,12.37,3.95c1.41,0,2.84-0.14,4.26-0.42C59.64,54,64.44,50.87,67.66,46.27z   M68.3,33.97L68.3,33.97c0.04,4.79-1.91,9.51-5.34,12.97c-3.43,3.45-8.04,5.35-12.99,5.35c-0.01,0-0.02,0-0.02,0  c-4.92-0.01-9.51-1.9-12.92-5.32c-3.46-3.48-5.43-8.25-5.41-13.1c0.03-8.78,7.06-18.26,18.34-18.27c0.01,0,0.01,0,0.02,0  c4.97,0,9.59,1.91,13.02,5.38C66.43,24.44,68.36,29.18,68.3,33.97z"></path>	<path class="st1" d="M87.55,61.18c-0.09-2.85-0.15-5.75-0.22-8.55c-0.04-1.79-0.08-3.58-0.13-5.37c-0.04-1.51-0.09-3.03-0.14-4.54  c-0.04-1.29-0.08-2.58-0.12-3.86c-0.02-0.58-0.08-1.33-0.45-2.05c-0.92-1.8-2.43-2.8-4.39-2.89c-1.84-0.09-3.3,0.78-4.33,2.58  c-0.8,1.39-1.18,3.03-1.19,5.14c-0.01,2.96-0.01,5.98,0,8.89c0,1.2,0.01,2.39,0.01,3.59l0,0.67c-0.86-0.77-2.01-1.19-3.2-1.16  c-1.44,0.04-2.8,0.72-3.75,1.89c-1.08,1.33-2.33,2.44-3.84,3.76c-0.31,0.27-0.63,0.55-0.94,0.82c-0.8,0.7-1.62,1.43-2.47,2.09  c-2.16,1.71-3.22,4.06-3.24,7.17c-0.02,4.24-0.02,8.56-0.01,12.73l0,3.53c0,1.36,0.58,1.94,1.93,1.94c1.97,0,3.93,0,5.9,0  c2,0,4,0,6.01,0c1.49,0,2.05-0.55,2.05-2.04l0-1.2c0-1.94,0.01-3.94-0.01-5.92c0-0.45,0.12-0.75,0.45-1.08  c1.6-1.59,3.2-3.19,4.8-4.79c1.46-1.46,2.93-2.93,4.4-4.39C86.69,66.14,87.63,63.86,87.55,61.18z M71.8,80.87  c0,1.01,0,2.05,0.01,3.08c0,0.29-0.05,0.38-0.07,0.4c-0.02,0.02-0.1,0.08-0.4,0.07c-1.39-0.01-2.8-0.02-4.23-0.02  c-1.41,0-2.84,0.01-4.27,0.02c-0.29,0.01-0.38-0.04-0.41-0.07c-0.02-0.02-0.07-0.1-0.07-0.39c0.02-1.85,0.02-3.74,0.01-5.56  c0-0.57,0-1.14,0-1.7l0.01-0.36c0-0.74,0-1.47,0-2.21c0-1.68-0.01-3.41,0.01-5.12c0.02-1.82,0.69-3.24,2.03-4.35  c2.68-2.21,5.5-4.6,7.92-7.32c0.28-0.31,0.65-0.5,1.05-0.52c0.37-0.02,0.72,0.1,0.98,0.34c0.58,0.53,0.61,1.37,0.07,2.06  c-0.14,0.18-0.31,0.35-0.48,0.52l-2.78,2.78c-1.44,1.44-2.89,2.89-4.33,4.33l-0.03,0.03c-0.21,0.21-0.43,0.43-0.59,0.7  c-0.38,0.65-0.28,1.34,0.29,1.89c0.54,0.52,1.2,0.61,1.82,0.25c0.24-0.14,0.45-0.33,0.63-0.51c0.67-0.67,1.35-1.34,2.02-2.01  c1.87-1.86,3.8-3.78,5.67-5.7c1.87-1.92,2.85-3.76,3.07-5.81c0.05-0.44,0.07-0.93,0.07-1.49c0-1.63,0-3.26,0-4.88  c0-2.7,0-5.5,0.01-8.25c0-1.16,0.23-2.13,0.69-2.98c0.3-0.55,0.76-0.89,1.29-0.96c0.54-0.07,1.08,0.15,1.51,0.62  c0.25,0.26,0.36,0.55,0.37,0.94c0.03,1.07,0.07,2.15,0.11,3.22c0.05,1.39,0.1,2.83,0.14,4.24c0.14,5.03,0.25,10.04,0.33,13.85  c0.01,0.25,0.03,0.5,0.05,0.74c0.03,0.38,0.06,0.74,0.03,1.11c-0.12,1.52-0.77,2.84-1.98,4.03c-1.65,1.63-3.31,3.29-4.92,4.91  c-1.55,1.55-3.15,3.16-4.74,4.73c-0.65,0.65-0.95,1.36-0.94,2.25C71.81,78.81,71.81,79.86,71.8,80.87z"></path>	<path class="st1" d="M48.35,20.3c-0.31,0.69-0.62,1.38-0.94,2.07c-0.69,1.53-1.41,3.11-2.1,4.68c-0.16,0.36-0.31,0.47-0.66,0.51  c-1.49,0.15-3,0.33-4.46,0.5c-0.96,0.11-1.92,0.22-2.88,0.33c-0.53,0.06-1.42,0.16-1.77,1.09c-0.38,1.03,0.36,1.71,0.71,2.03  c0.73,0.66,1.46,1.33,2.19,2c1.07,0.98,2.18,1.99,3.28,2.98C42,36.72,42.06,36.9,42,37.21c-0.15,0.66-0.29,1.34-0.42,2l-0.07,0.35  c-0.27,1.31-0.54,2.62-0.79,3.86l-0.29,1.42l-0.01,0.06c-0.03,0.77,0.25,1.4,0.76,1.71c0.48,0.29,1.09,0.28,1.68-0.05  c2.13-1.17,4.2-2.32,6.25-3.56c0.64-0.39,1.08-0.39,1.73,0c1.7,1.02,3.45,2.01,5.15,2.95l1.03,0.57c0.34,0.19,0.68,0.29,1,0.29  c0.44,0,0.85-0.19,1.15-0.55c0.47-0.57,0.39-1.2,0.28-1.75l-0.2-0.97c-0.41-2.03-0.84-4.14-1.29-6.2c-0.09-0.42-0.02-0.64,0.3-0.92  c1.16-1.03,2.32-2.09,3.44-3.12c0.66-0.61,1.32-1.21,1.99-1.81c0.33-0.3,1.1-0.99,0.7-2.04c-0.35-0.92-1.24-1.02-1.77-1.08  c-0.87-0.09-1.75-0.2-2.62-0.3c-1.48-0.17-3-0.35-4.51-0.49c-0.51-0.05-0.73-0.22-0.96-0.75c-0.82-1.89-1.69-3.79-2.53-5.63  l-0.45-0.99c-0.55-1.21-1.39-1.28-2-1.13C48.8,19.29,48.52,19.92,48.35,20.3z M55.37,34.73c-0.72,0.63-0.96,1.31-0.76,2.2  c0.3,1.34,0.57,2.69,0.86,4.12c0.07,0.35,0.14,0.7,0.21,1.05l-3.8-2.15c-0.08-0.05-0.17-0.09-0.25-0.14  c-0.19-0.1-0.37-0.2-0.54-0.32c-0.72-0.47-1.44-0.47-2.21-0.02c-1.02,0.6-2.06,1.19-3.07,1.76c-0.38,0.22-0.76,0.43-1.14,0.65  c-0.13,0.07-0.26,0.15-0.4,0.22l0.1-0.5c0.19-0.95,0.37-1.85,0.56-2.75c0.04-0.19,0.08-0.39,0.11-0.58  c0.09-0.46,0.18-0.93,0.3-1.38c0.22-0.82,0-1.48-0.69-2.09c-1.19-1.05-2.38-2.14-3.52-3.2l-0.34-0.31  c-0.02-0.02-0.05-0.04-0.07-0.06c0.05,0,0.09,0,0.14-0.01c0.93-0.11,1.86-0.21,2.79-0.31c0.84-0.09,1.69-0.19,2.53-0.28  c0.74-0.08,1.27-0.49,1.59-1.22c0.55-1.24,1.12-2.49,1.67-3.71l0.51-1.11c0.01-0.02,0.02-0.05,0.03-0.07l0.47,1.04  c0.55,1.21,1.13,2.47,1.66,3.71c0.38,0.87,1,1.31,1.95,1.4c1.23,0.11,2.49,0.25,3.7,0.39c0.5,0.06,0.99,0.11,1.49,0.17l-0.83,0.76  C57.42,32.88,56.4,33.83,55.37,34.73z"></path></g></svg>