<svg xmlns="http://www.w3.org/2000/svg" xmlns:xlink="http://www.w3.org/1999/xlink" id="Capa_1" x="0px" y="0px" viewBox="0 0 100 100" style="enable-background:new 0 0 100 100;" xml:space="preserve"><style type="text/css">	.st0{fill:#FFFFFF;}	.st1{fill:#00C64F;}</style><path class="st0" d="M89.74,0.35H10.26c-5.47,0-9.91,4.44-9.91,9.91v79.49c0,5.47,4.44,9.91,9.91,9.91h79.49 c5.47,0,9.91-4.44,9.91-9.91V10.26C99.65,4.79,95.21,0.35,89.74,0.35z"></path><g>	<g>		<path class="st1" d="M71.37,18.98c0,1.96,0.02,3.59-0.01,5.21c-0.01,0.59,0.22,0.91,0.74,1.16c2.9,1.4,5.78,2.83,8.67,4.25   c1.07,0.53,1.53,1.23,1.43,2.08c-0.15,1.33-1.47,2.07-2.73,1.49c-1.76-0.82-3.49-1.7-5.23-2.55c-1.72-0.85-3.41-1.74-5.16-2.53   c-1.15-0.53-1.59-1.36-1.58-2.58c0.03-3.24-0.01-6.49,0.03-9.74c0.01-0.78-0.19-1.11-1.03-1.06c-1.11,0.06-2.24,0.05-3.35,0   c-0.75-0.03-1.04,0.2-1.02,0.99c0.05,1.81-0.05,3.62,0.03,5.43c0.08,1.81-1.43,2.93-3.2,2c-3.7-1.93-7.5-3.67-11.24-5.52   c-0.56-0.27-1.01-0.28-1.57-0.01c-10.14,4.99-20.3,9.95-30.45,14.92c-0.38,0.19-0.77,0.38-1.17,0.51   c-0.88,0.28-1.78-0.09-2.19-0.86c-0.46-0.86-0.25-1.82,0.54-2.42c0.56-0.43,1.22-0.65,1.84-0.96c9.84-4.83,19.69-9.62,29.5-14.5   c1.86-0.93,3.51-1,5.36-0.01c2.57,1.38,5.24,2.59,7.87,3.87c0.9,0.44,0.94,0.41,0.94-0.62c0-1.17-0.01-2.34,0-3.51   c0.02-1.83,1.08-3.06,2.92-3.13c2.34-0.08,4.68-0.08,7.02-0.01c1.75,0.05,2.78,1.08,2.97,2.84C71.49,15.6,71.32,17.46,71.37,18.98   z"></path>		<path class="st1" d="M47.3,87.71c-3.14,0-6.28,0-9.41,0c-2.41,0-3.73-1.33-3.73-3.77c0-2.21-0.01-4.41,0-6.62   c0.03-5.26,3.93-9.15,9.21-9.17c2.69-0.01,5.37-0.01,8.06,0c5.12,0.02,8.96,3.86,8.99,9c0.01,2.34,0.01,4.68,0,7.02   c-0.01,2.2-1.34,3.53-3.53,3.53C53.68,87.72,50.49,87.71,47.3,87.71z M47.46,84.12c1.57,0,3.14-0.03,4.71,0.01   c0.68,0.02,0.93-0.24,0.86-0.89c-0.02-0.16,0-0.32,0-0.48c0-1.49,0-2.98,0-4.47c0-1.8,0.49-2.62,1.53-2.61   c1.02,0.02,1.49,0.81,1.49,2.57c0,1.57,0,3.14,0,4.71c0,0.19,0,0.37,0.01,0.56c0.01,0.27,0.03,0.57,0.41,0.56   c0.38-0.01,0.36-0.34,0.36-0.6c0-2.34,0.06-4.68-0.04-7.02c-0.1-2.43-2.34-4.63-4.75-4.69c-3.08-0.07-6.17-0.07-9.25,0   c-2.45,0.06-4.54,1.95-4.89,4.37c-0.34,2.38-0.07,4.78-0.15,7.17c-0.02,0.48,0.05,0.81,0.67,0.81c0.61,0,0.7-0.3,0.69-0.8   c-0.01-1.86,0-3.72-0.01-5.59c0-0.38,0.02-0.75,0.15-1.1c0.22-0.58,0.66-0.92,1.26-0.95c0.64-0.03,1.11,0.3,1.39,0.88   c0.15,0.32,0.15,0.67,0.15,1.02c0,1.92,0.02,3.83-0.01,5.75c-0.01,0.59,0.2,0.79,0.79,0.78C44.38,84.1,45.92,84.12,47.46,84.12z"></path>		<path class="st1" d="M33.61,47.08c1.97,0,3.94,0,5.9,0c2.19-0.01,4.18,0.65,6.03,1.81c1.04,0.65,1.33,1.65,0.78,2.58   c-0.51,0.85-1.51,1.11-2.51,0.49c-1.68-1.04-3.48-1.34-5.41-1.31c-3.62,0.05-7.23-0.01-10.85,0.03c-3.92,0.04-7.17,2.75-7.91,6.58   c-0.11,0.57-0.12,1.16-0.12,1.75c-0.01,3.03,0.02,6.06-0.02,9.1c-0.01,0.78,0.19,1.09,1.03,1.07c2.14-0.03,2.14,0,2.14-2.16   c0-2.53,0-5.05,0-7.58c0-0.37,0.01-0.74,0.14-1.1c0.24-0.62,0.72-0.94,1.35-0.94c0.63,0,1.11,0.33,1.35,0.94   c0.14,0.36,0.12,0.73,0.12,1.1c0,2.93,0.02,5.85-0.01,8.78c-0.01,0.74,0.22,0.98,0.96,0.96c1.81-0.04,3.62-0.02,5.43-0.01   c0.42,0,0.85,0.04,1.26,0.14c0.8,0.2,1.35,0.99,1.3,1.79c-0.05,0.8-0.7,1.5-1.52,1.61c-0.24,0.03-0.48,0.03-0.72,0.03   c-4.12,0-8.25,0.01-12.37,0c-2.48,0-3.99-1.5-4-3.96c-0.01-3.46-0.03-6.92,0.01-10.37c0.07-6.1,5.25-11.24,11.36-11.31   C29.41,47.06,31.51,47.08,33.61,47.08z"></path>		<path class="st1" d="M63.67,56.97c1.81,0,3.62-0.01,5.43,0c5.61,0.05,10.26,4.68,10.31,10.28c0.03,3.08,0.01,6.17,0.01,9.25   c0,2.45-1.34,3.93-3.8,3.97c-3.91,0.06-7.82,0.03-11.73,0.01c-1.18-0.01-1.88-0.52-2.09-1.38c-0.28-1.13,0.53-2.16,1.78-2.18   c2.15-0.02,4.31-0.04,6.46,0.01c0.76,0.02,1.01-0.21,1-0.99c-0.04-2.53-0.02-5.05-0.01-7.58c0-1.38,0.55-2.14,1.51-2.11   c0.94,0.03,1.44,0.75,1.44,2.09c0,2.58,0.02,5.16-0.01,7.74c-0.01,0.69,0.25,0.86,0.89,0.85c0.61-0.01,1-0.05,0.99-0.84   c-0.04-2.85,0.02-5.69-0.03-8.54c-0.06-3.44-2.07-5.95-5.37-6.86c-0.68-0.19-1.37-0.15-2.06-0.15c-3.46-0.01-6.91,0-10.37-0.01   c-0.27,0-0.53,0.01-0.8-0.03c-1.08-0.17-1.73-0.91-1.67-1.89c0.06-0.94,0.83-1.64,1.91-1.65C59.52,56.96,61.6,56.98,63.67,56.97   C63.67,56.97,63.67,56.97,63.67,56.97z"></path>		<path class="st1" d="M24.72,36.55c-0.01-4.91,3.97-8.92,8.85-8.93c4.86,0,8.92,4.05,8.92,8.89c0,4.84-4.08,8.9-8.93,8.89   C28.72,45.4,24.73,41.4,24.72,36.55z M33.6,31.22c-2.9-0.02-5.27,2.34-5.29,5.25c-0.01,2.94,2.3,5.31,5.2,5.34   c2.92,0.03,5.34-2.37,5.35-5.3C38.86,33.62,36.5,31.24,33.6,31.22z"></path>		<path class="st1" d="M71.76,47.27c0,4.49-3.68,8.2-8.14,8.19c-4.42,0-8.16-3.73-8.21-8.19c-0.05-4.38,3.75-8.17,8.2-8.17   C68.11,39.1,71.75,42.75,71.76,47.27z M68.17,47.35c0.03-2.57-1.91-4.62-4.43-4.65c-2.61-0.04-4.71,1.99-4.72,4.57   c-0.01,2.48,2.05,4.57,4.56,4.6C66.08,51.9,68.14,49.88,68.17,47.35z"></path>		<path class="st1" d="M47.46,67.01c-3.79,0.02-6.94-3.11-6.92-6.88c0.02-3.73,3.08-6.8,6.8-6.83c3.87-0.03,6.99,3.04,6.99,6.87   C54.33,63.91,51.24,66.99,47.46,67.01z M47.36,63.41c1.89,0.03,3.35-1.34,3.38-3.19c0.03-1.85-1.38-3.32-3.22-3.35   c-1.85-0.03-3.34,1.37-3.39,3.19C44.09,61.89,45.53,63.38,47.36,63.41z"></path>	</g></g></svg>