<?xml version="1.0" encoding="UTF-8"?>
<svg id="Capa_2" data-name="Capa 2" xmlns="http://www.w3.org/2000/svg" viewBox="0 0 1080 1080">
  <defs>
    <style>
      .cls-1 {
        fill: #04b71e;
      }

      .cls-1, .cls-2, .cls-3 {
        stroke-width: 0px;
      }

      .cls-2 {
        fill: #006719;
      }

      .cls-3 {
        fill: #fff;
      }

      .cls-4 {
        fill: none;
        stroke: #fff;
        stroke-linecap: round;
        stroke-linejoin: round;
        stroke-width: 30px;
      }
    </style>
  </defs>
  <g id="carro">
    <g>
      <rect class="cls-1" width="1080" height="1080" rx="133.88" ry="133.88"/>
      <path class="cls-3" d="M501.69,761.08c-1.06-21.7-3.67-43.36-7.65-64.71-3.75-20.15-8.86-40.04-15.26-59.51-6.76-20.6-14.96-40.77-24.35-60.31-8.88-18.47-18.98-36.35-30.23-53.48-11.89-18.1-25.04-35.43-39.27-51.76-1.66-1.9-3.34-3.79-5.03-5.67-7.07,7.07-14.14,14.14-21.21,21.21,5.45,4.38,11.02,8.23,17.45,11,6.39,2.76,12.79,5.01,19.68,6.13,14.13,2.29,28.15,1.77,42.12-1.49,26.98-6.3,50.09-23.18,69.4-42.45,10.57-10.55,20.21-21.98,29.8-33.41-8.36-2.21-16.71-4.41-25.07-6.62,7.73,28.98,27.97,54.45,54.1,69.07s60.06,17.99,89.4,7.95c16.93-5.79,32.59-15.18,45.05-28.1,4.46-4.62,5.97-12.55,2.35-18.18-1.4-2.17-3.21-3.98-5.38-5.38-3.01-1.94-8.15-2.67-11.56-1.51-20.66,7-38.53,20.54-51.91,37.66-7.3,9.34-13.58,19.19-18.78,29.85-5.44,11.15-9.98,22.77-13.99,34.5-7.59,22.21-13.91,44.9-19.31,67.74s-9.87,46.41-13.21,69.9c-3.52,24.71-6.07,49.53-7.34,74.46-.15,2.91-.28,5.81-.39,8.72-.31,7.85,7.12,15.35,15,15,8.4-.38,14.66-6.59,15-15,.98-24.37,3.09-48.69,6.32-72.87l-.54,3.99c5.97-44.36,15.69-88.2,29.12-130.89,3.57-11.35,7.4-22.62,12.03-33.59l-1.51,3.58c5.52-13,12.19-25.55,20.81-36.77l-2.35,3.04c5.88-7.59,12.59-14.51,20.17-20.42l-3.04,2.35c6.1-4.69,12.71-8.67,19.79-11.69l-3.58,1.51c1.86-.78,3.75-1.49,5.66-2.14l-14.59-25.07c-3.21,3.33-6.66,6.41-10.32,9.24l3.04-2.35c-6.65,5.08-13.92,9.27-21.62,12.53l3.58-1.51c-8.23,3.43-16.85,5.79-25.68,7l3.99-.54c-8.65,1.14-17.39,1.17-26.04.02l3.99.54c-7.92-1.11-15.62-3.22-23-6.3l3.58,1.51c-7.83-3.32-15.17-7.65-21.91-12.84l3.04,2.35c-6.71-5.23-12.75-11.27-17.98-17.99l2.35,3.04c-5.19-6.74-9.51-14.08-12.82-21.91l1.51,3.58c-1.63-3.92-3-7.94-4.1-12.05-1.34-5.04-5.47-9.1-10.48-10.48s-11.24-.14-14.59,3.86c-14.93,17.79-30.07,35.7-48.49,50.02l3.04-2.35c-8.59,6.62-17.83,12.46-27.83,16.7l3.58-1.51c-8.07,3.38-16.53,5.73-25.19,6.94l3.99-.54c-7.68,1.03-15.45,1.15-23.15.14l3.99.54c-6.16-.85-12.18-2.42-17.91-4.82l3.58,1.51c-4.78-2.04-9.27-4.63-13.41-7.78l3.04,2.35c-.42-.32-.83-.65-1.24-.98-3.21-2.58-6.32-4.39-10.61-4.39-3.68,0-8.07,1.63-10.61,4.39-5.73,6.25-5.62,14.97,0,21.21,7.54,8.37,14.76,17.03,21.66,25.94l-2.35-3.04c18.99,24.61,35.46,51.14,49.12,79.06,3.84,7.85,7.46,15.81,10.86,23.87l-1.51-3.58c12.4,29.46,21.81,60.16,27.93,91.53,1.73,8.86,3.19,17.78,4.39,26.73l-.54-3.99c1.67,12.52,2.81,25.1,3.43,37.71.19,3.96,1.54,7.75,4.39,10.61,2.6,2.6,6.87,4.56,10.61,4.39s7.9-1.45,10.61-4.39,4.59-6.62,4.39-10.61h0Z"/>
      <g>
        <path class="cls-2" d="M549.25,960.16c-1.34,0-2.75-.03-4.19-.08-3.42-.12-7.09-.18-11.54-.18-3.03,0-6.06.03-9.09.05-3.04.03-6.09.05-9.13.05-2.65,0-5.01-.02-7.21-.06-.22,0-.45,0-.68,0-1.11,0-2.28.04-3.46.09-1.26.04-2.56.09-3.85.09-3.55,0-7.54-.32-10.24-2.66-6.45-5.6-12.52-11.85-18.39-17.89-9.14-9.41-18.59-19.14-29.37-26.23-21.05-13.85-28.33-31.93-24.16-60.21-33.18-16.83-42.94-40.26-29.83-71.58.76-1.83-1.33-6.18-2.87-9.36-.58-1.21-1.13-2.35-1.61-3.46-.84-1.98-2.25-4.13-3.62-6.22-2.75-4.21-5.6-8.57-4.79-12.85,6.87-36.01-12.97-57.28-33.97-79.79-5.66-6.07-11.52-12.35-16.8-18.92-29.29-36.45-47.46-75.67-54-116.56-6.56-41-1.43-83.72,15.23-126.98,35.53-92.22,107.2-147.89,207.26-161,14.3-1.87,28.46-2.82,42.08-2.82,43.67,0,83.73,9.65,119.07,28.68,35.91,19.33,67.06,48.42,92.6,86.46,28.37,42.26,43.08,86.55,43.72,131.65.63,44.13-12.19,89.36-38.12,134.44-7.92,13.77-16.65,25.41-25.94,34.58-23.98,23.69-46.63,46.06-44.9,87.1.43,10.25-1.65,20.91-3.86,32.19-1.97,10.07-4.01,20.49-4.22,30.92-.22,11.01-8.42,21.52-17.91,33.69-4.56,5.85-9.28,11.9-13.75,18.71,2.04,13.94,1.57,45.04-39.92,55.29-3.06.76-7.44,5.79-8.07,9.28-5.44,30.09-28,33.57-44.5,33.57ZM500.18,922.2c-.25,0-.36.18-.41.33-.07.23.02.29.09.34,8.54,5.91,19.55,9.17,30.99,9.17h0c11.99,0,23.66-3.49,32.89-9.85h-63.57ZM493.95,851.49c-9.41,0-17.01.56-23.89,1.77-2.34.41-4.77,1.5-7.44,3.34-5.38,3.7-8.37,9.85-8.01,16.46.34,6.19,3.56,11.38,8.85,14.22,1.67.9,3.19,1.38,4.63,1.45,19.94,1.03,40.24,1.56,60.32,1.56s41.03-.54,61.39-1.6c1.45-.08,2.96-.55,4.64-1.44,5.29-2.82,8.54-7.99,8.91-14.18.39-6.59-2.56-12.76-7.9-16.49-2.64-1.84-5.05-2.94-7.36-3.34-6.88-1.21-14.44-1.77-23.82-1.77-5.88,0-11.92.22-17.76.43-5.72.21-11.63.42-17.42.43-5.88,0-11.86-.21-17.65-.41-5.75-.2-11.69-.41-17.47-.41ZM527.24,824.93c8.89,0,17.94.13,26.69.26,8.73.13,17.77.26,26.63.26,16.86,0,30.48-.5,42.85-1.58,2.12-.19,4.41-1.27,7.01-3.32,5.12-4.04,7.78-10.4,7.11-17.03-.64-6.34-4.16-11.56-9.66-14.32-1.72-.86-3.26-1.3-4.72-1.34-30.16-.76-60.21-1.15-89.33-1.15-33.03,0-65.92.5-97.76,1.48-1.53.05-3.16.53-4.96,1.47-5.88,3.08-9.4,9.05-9.43,15.98-.03,6.98,3.63,13.28,9.54,16.44,1.97,1.05,3.78,1.64,5.52,1.8,11.48,1.04,24.16,1.52,39.88,1.52h.01c8.07,0,16.29-.12,24.24-.24,7.97-.12,16.22-.24,24.32-.24h2.05ZM528.78,270.74c-82.67,0-162.06,44.98-202.27,114.59-52.49,90.87-36.31,199.43,40.27,270.14,25.19,23.26,35.66,45.89,35.01,75.67-.18,8.32,11.69,23.2,20.83,26.11,5.22,1.66,11.28,2.43,19.05,2.43,4.92,0,10.01-.29,15.4-.6,5.78-.33,11.75-.67,17.96-.67l25.35-1.24h53.62l25.04,1.67h24.29c4.29,0,8.41,0,12.53,0,19.28-.03,28.71-.85,33.65-5.69,5.11-5,6.41-15.63,8.56-33.23,2.6-21.31,12.56-42.96,25.38-55.16,66.95-63.74,91.1-137.39,71.77-218.89-20.04-84.51-75.02-140.43-163.41-166.2-20.34-5.93-41.55-8.94-63.04-8.94Z"/>
        <path class="cls-2" d="M535.03,246.1c86.18,0,158.33,37.67,209.6,114.03,57.04,84.98,56.58,174.66,5.52,263.45-7.04,12.23-15.53,24.18-25.53,34.05-25.06,24.75-47.39,47.47-45.64,88.99.81,19.15-7.63,40.79-8.07,62.95-.31,15.24-17.69,30.14-31.78,51.89,3.42,20.94-3.52,44.93-37.9,53.43-4.1,1.01-9.14,6.93-9.93,11.26-4.53,25.05-20.82,31.52-42.04,31.52-1.35,0-2.72-.03-4.1-.08-3.88-.14-7.76-.18-11.64-.18-6.07,0-12.14.1-18.21.1-2.39,0-4.78-.02-7.17-.06-.24,0-.48,0-.73,0-2.31,0-4.86.18-7.31.18-3.44,0-6.65-.35-8.6-2.05-16.46-14.3-30.09-32.51-48.02-44.32-23.07-15.19-26.78-34.95-22.78-59.55-29.89-14.63-44.35-35.56-30.28-69.19,1.54-3.68-2.43-9.96-4.48-14.77-2.58-6.05-9.23-12.48-8.25-17.62,9.03-47.38-26.84-70.33-51.27-100.74-58.23-72.46-71.59-154.89-38.39-241.07,35.78-92.87,107.43-146.61,205.25-159.42,14.25-1.87,28.18-2.8,41.75-2.8M441.68,762.19c10.34,0,21.53-1.27,33.42-1.27l25.28-1.24h53.54l25.04,1.67c9.21,0,17.05,0,24.39,0,4.29,0,8.4,0,12.52,0,39.42-.05,40.07-3.31,44.69-41.11,2.3-18.83,11.22-40.9,24.62-53.65,64.47-61.38,93.16-134.09,72.48-221.28-20.86-87.95-79.25-142.98-165.14-168.02-20.97-6.11-42.43-9.04-63.74-9.04-82.51,0-162.83,43.81-204.43,115.84-52.4,90.72-37.1,201.36,40.74,273.23,22.87,21.12,34.9,42.35,34.21,73.78-.21,9.77,12.61,25.38,22.58,28.55,6.18,1.97,12.8,2.55,19.81,2.55M476.62,827.91c16.18,0,32.4-.48,48.58-.48.67,0,1.35,0,2.02,0,17.76,0,35.57.52,53.33.52,14.4,0,28.77-.34,43.06-1.59,2.87-.25,5.64-1.72,8.35-3.85,11.95-9.42,10.62-28.72-2.97-35.55-1.91-.96-3.84-1.55-5.78-1.6-29.78-.76-59.6-1.15-89.4-1.15-32.62,0-65.24.48-97.83,1.49-2.03.06-4.04.71-6.04,1.75-14.46,7.57-14.3,29.15.09,36.84,2.12,1.13,4.27,1.89,6.48,2.09,13.31,1.2,26.7,1.53,40.12,1.53M529.07,849.82c-11.66,0-23.46-.82-35.12-.82-8.21,0-16.35.41-24.32,1.8-2.94.51-5.73,1.88-8.43,3.74-12.44,8.56-12.22,27.78,1.07,34.94,1.87,1.01,3.76,1.65,5.68,1.75,20.11,1.04,40.28,1.56,60.45,1.56s41.05-.54,61.52-1.61c1.92-.1,3.82-.73,5.69-1.73,13.3-7.1,13.62-26.29,1.26-34.92-2.68-1.87-5.44-3.24-8.36-3.76-7.94-1.4-16.06-1.81-24.25-1.81-11.68,0-23.51.84-35.19.87M530.85,934.54c12.31,0,24.7-3.57,34.63-10.51,1.89-1.32.91-4.34-1.4-4.34h-63.9c-2.79,0-4.03,3.64-1.74,5.23,9.34,6.46,20.84,9.62,32.41,9.62M535.04,241.1v5-5c-13.74,0-28,.96-42.41,2.84-101.03,13.24-173.39,69.46-209.27,162.58-16.83,43.67-22,86.83-15.37,128.27,6.61,41.33,24.95,80.94,54.52,117.73,5.34,6.64,11.23,12.95,16.92,19.06,20.55,22.03,39.97,42.85,33.34,77.61-1.01,5.27,2.12,10.06,5.15,14.69,1.3,1.99,2.65,4.06,3.41,5.83.5,1.17,1.09,2.39,1.66,3.57.95,1.97,2.92,6.05,2.77,7.4-7.24,17.36-7.64,32.76-1.17,45.78,5.42,10.92,15.46,20.12,30.63,28.08-1.7,12.71-1.06,22.97,1.97,32.06,3.84,11.51,11.54,20.94,23.54,28.84,10.54,6.94,19.48,16.14,28.94,25.88,5.91,6.08,12.02,12.37,18.54,18.04,3.32,2.88,7.87,3.27,11.88,3.27,1.33,0,2.65-.05,3.94-.09,1.2-.04,2.32-.08,3.37-.08.21,0,.43,0,.64,0,2.22.04,4.59.06,7.26.06,3.05,0,6.15-.03,9.14-.05,2.97-.03,6.05-.05,9.06-.05,4.43,0,8.07.06,11.46.18,1.47.05,2.91.08,4.28.08,17.4,0,41.19-3.69,46.97-35.63.48-2.66,4.26-6.82,6.21-7.3,17.13-4.23,29.33-12.44,36.26-24.39,5.35-9.24,7.3-20.52,5.67-32.73,4.26-6.41,8.76-12.17,13.11-17.76,9.77-12.52,18.2-23.34,18.44-35.18.21-10.21,2.22-20.52,4.17-30.49,2.23-11.43,4.35-22.23,3.9-32.77-1.68-39.94,20.59-61.94,44.16-85.22,9.45-9.33,18.31-21.15,26.35-35.11,26.15-45.47,39.09-91.13,38.45-135.72-.65-45.59-15.51-90.34-44.15-133.01-25.76-38.38-57.22-67.74-93.49-87.27-35.71-19.23-76.17-28.98-120.26-28.98h0ZM441.68,757.19c-7.51,0-13.33-.74-18.3-2.32-8.19-2.6-19.25-16.32-19.09-23.67.67-30.56-10.04-53.76-35.81-77.56-75.69-69.9-91.69-177.22-39.8-267.06,39.77-68.85,118.31-113.34,200.1-113.34,21.25,0,42.22,2.97,62.34,8.84,87.46,25.5,141.85,80.8,161.67,164.37,19.38,81.71-3.87,152.53-71.06,216.5-13.21,12.57-23.46,34.81-26.13,56.66-2.08,17.06-3.34,27.36-7.83,31.75-4.29,4.2-13.71,4.95-31.91,4.97-4.11,0-8.23,0-12.51,0h-10.8s-13.42,0-13.42,0l-24.87-1.66h-.17s-.17-.01-.17-.01h-53.78s-25.16,1.24-25.16,1.24c-6.25,0-12.24.35-18.04.68-5.35.31-10.41.59-15.26.59h0ZM476.62,822.91c-15.65,0-28.26-.48-39.67-1.51-1.4-.13-2.9-.62-4.57-1.52-5.17-2.77-8.25-8.08-8.22-14.23.03-5.99,3.05-11.14,8.09-13.78,1.46-.76,2.72-1.15,3.87-1.19,31.81-.98,64.67-1.48,97.68-1.48,29.1,0,59.13.39,89.27,1.15,1.08.03,2.28.38,3.66,1.07,4.71,2.37,7.74,6.87,8.29,12.34.58,5.77-1.72,11.31-6.17,14.82-2.21,1.74-4.07,2.65-5.69,2.79-12.29,1.07-25.84,1.57-42.63,1.57-8.84,0-17.86-.13-26.59-.26-8.76-.13-17.82-.26-26.74-.26-.67,0-1.34,0-2.02,0-8.13,0-16.38.12-24.37.24-7.95.12-16.16.24-24.22.24h0ZM529.07,854.82h.01c5.84-.01,11.77-.23,17.51-.44,5.82-.21,11.84-.43,17.67-.43,9.22,0,16.65.55,23.38,1.74,1.95.34,4.03,1.3,6.37,2.93,4.62,3.23,7.18,8.57,6.84,14.29-.32,5.3-3.08,9.72-7.59,12.12-1.35.72-2.53,1.1-3.6,1.15-20.32,1.06-40.93,1.6-61.26,1.6s-40.29-.52-60.19-1.55c-1.06-.05-2.23-.43-3.57-1.15-4.5-2.42-7.25-6.85-7.53-12.16-.31-5.73,2.28-11.06,6.93-14.26,2.36-1.63,4.48-2.59,6.45-2.93,6.74-1.18,14.19-1.73,23.46-1.73,5.74,0,11.66.21,17.39.41,5.81.2,11.82.42,17.74.42h0ZM508.1,924.7h46.05c-7.12,3.16-15.12,4.85-23.3,4.85s-15.92-1.69-22.75-4.85h0Z"/>
      </g>
      <line class="cls-4" x1="529.65" y1="116.48" x2="529.65" y2="195.02"/>
      <line class="cls-4" x1="355.09" y1="146.46" x2="383.5" y2="219.68"/>
      <line class="cls-4" x1="209.82" y1="272.33" x2="270.19" y2="322.57"/>
      <line class="cls-4" x1="152.28" y1="433.34" x2="229.07" y2="449.81"/>
      <line class="cls-4" x1="153.26" y1="580.72" x2="228.09" y2="556.9"/>
      <line class="cls-4" x1="729.26" y1="154.11" x2="689.99" y2="222.12"/>
      <line class="cls-4" x1="870.18" y1="272.33" x2="809.81" y2="322.57"/>
      <line class="cls-4" x1="927.72" y1="433.34" x2="850.93" y2="449.81"/>
      <line class="cls-4" x1="926.74" y1="580.72" x2="851.91" y2="556.9"/>
    </g>
  </g>
</svg>