<?xml version="1.0" encoding="UTF-8"?>
<svg id="Capa_2" data-name="Capa 2" xmlns="http://www.w3.org/2000/svg" viewBox="0 0 877.53 731.69">
  <defs>
    <style>
      .cls-1 {
        fill: #fff;
      }
    </style>
  </defs>
  <g id="Capa_1-2" data-name="Capa 1">
    <g>
      <g>
        <path class="cls-1" d="m129.84,638.67H28.75c6.67,0,12.3-5.34,16.89-16.01,4.59-10.67,8.13-24.35,10.64-41.04,2.5-16.68,3.84-34.36,4-53.05.16-18.68-.84-36.37-3-53.05-2.17-16.68-5.63-30.36-10.39-41.04-4.75-10.67-10.8-16.02-18.14-16.02h95.34c-7.51,0-13.39,4.76-17.64,14.26-4.25,9.51-7.3,21.52-9.13,36.03-1.84,14.51-2.92,29.61-3.25,45.29-.34,15.68-.34,30.11,0,43.29.33,13.18.5,22.77.5,28.78,0,7.01.75,13.93,2.25,20.77,1.5,6.84,4.79,13.01,9.88,18.52,5.09,5.51,12.8,9.93,23.15,13.26Zm3.75,0c17.35-3,30.03-6.59,38.04-10.76,8.01-4,14.14-8.76,18.39-14.26,4.25-5.5,8.47-12.01,12.64-19.52-7.84,15.01-15.93,29.86-24.27,44.54h-44.79Z"/>
        <path class="cls-1" d="m206.42,528.57c0-30.86,7.17-56.22,21.52-76.07,14.35-19.85,33.86-31.69,58.56-35.53-11.85,7.67-21.23,21.19-28.15,40.54-6.92,19.35-10.39,43.04-10.39,71.07s3.42,52.51,10.26,71.94c6.84,19.44,16.18,32.74,28.03,39.91-24.52-3.5-43.96-15.22-58.31-35.16-14.35-19.93-21.52-45.5-21.52-76.7Zm103.6,112.11c14.35-6.17,25.61-19.06,33.78-38.66,8.17-19.6,12.26-44.08,12.26-73.45s-4.13-54.93-12.39-75.2c-8.26-20.27-19.39-32.57-33.41-36.91,26.69,2.84,47.96,14.26,63.81,34.28,15.85,20.02,23.77,45.96,23.77,77.82s-7.88,57.05-23.65,77.07c-15.77,20.02-37.16,31.7-64.19,35.03Z"/>
        <path class="cls-1" d="m421.37,638.67c6.01,0,11.14-5.34,15.39-16.01,4.25-10.67,7.46-24.35,9.63-41.04,2.17-16.68,3.33-34.36,3.5-53.05.16-18.68-.75-36.37-2.75-53.05-2-16.68-5.13-30.36-9.38-41.04-4.25-10.67-9.72-16.02-16.39-16.02h63.81v220.21h-63.81Zm105.35-67.06c-6.51-21.85-14.6-35.78-24.27-41.79,11.17-1.16,19.93-4.67,26.28-10.51,6.34-5.84,10.76-12.93,13.26-21.27,2.5-8.34,3.75-16.35,3.75-24.02,0-7.17-1.17-14.55-3.5-22.15-2.34-7.59-6.55-14.43-12.64-20.52-6.09-6.09-14.56-10.39-25.4-12.89h18.02c18.85,0,34.2,5.72,46.04,17.14,11.84,11.43,17.77,26.57,17.77,45.42,0,15.02-4.17,26.74-12.51,35.16-8.34,8.43-19.6,14.14-33.78,17.14l-1,.25c-2.84.5-5.17.75-7.01.75-1,0-1.92-.08-2.75-.25,6.84,2.17,13.97,4.75,21.4,7.76,7.42,3,13.05,6.59,16.89,10.76,5.51,7.68,9.09,16.31,10.76,25.9,1.66,9.59,4.75,18.98,9.26,28.15,4.34,7.01,10.72,13.93,19.14,20.77,8.42,6.84,15.8,11.34,22.15,13.51l-16.27-.25h.25c-3.5,0-8.26-.17-14.26-.5-19.35-.67-33.32-3.33-41.92-8.01-8.59-4.67-14.64-11.89-18.14-21.65-3.5-9.76-7.34-22.73-11.51-38.91Z"/>
        <path class="cls-1" d="m706.65,638.67h-65.06c8.34-1.33,15.05-9.34,20.14-24.02,5.09-14.68,8.55-32.7,10.39-54.05,1.83-21.35,1.96-42.67.38-63.94-1.59-21.27-4.97-39.24-10.14-53.93-5.17-14.68-12.1-22.77-20.77-24.27h65.06v220.21Zm30.03-220.21h.75c24.52,0,45.04,4.59,61.56,13.76,16.51,9.18,28.94,22.02,37.28,38.54,8.34,16.52,12.51,35.78,12.51,57.81s-4.63,42.54-13.89,58.56c-9.26,16.02-22.27,28.32-39.04,36.91-16.77,8.59-36.5,13.39-59.18,14.39,22.02-2.67,39.54-13.34,52.55-32.03,13.01-18.68,19.52-44.62,19.52-77.82s-6.05-57.76-18.14-77.7c-12.1-19.93-30.07-30.74-53.93-32.41Z"/>
      </g>
      <g>
        <path class="cls-1" d="m41.28,731.39v-54.16h6.19v54.16h-6.19Z"/>
        <path class="cls-1" d="m125.75,731.39l-32.48-43.47v43.47h-6.2v-54.16h6.42l32.48,43.55v-43.55h6.12v54.16h-6.34Z"/>
        <path class="cls-1" d="m220.83,731.39l-.11-44.64-19.71,38.9h-3.7l-19.64-38.9v44.64h-5.89v-54.16h7.67l19.79,39.01,19.72-39.01h7.59v54.16h-5.7Z"/>
        <path class="cls-1" d="m303.7,680.72c4.33,2.43,7.76,5.72,10.29,9.88,2.53,4.15,3.8,8.72,3.8,13.71s-1.27,9.61-3.8,13.79c-2.53,4.18-5.96,7.49-10.29,9.93-4.33,2.44-9.06,3.66-14.2,3.66s-9.98-1.22-14.31-3.66c-4.33-2.44-7.76-5.75-10.29-9.93-2.53-4.18-3.8-8.78-3.8-13.79s1.27-9.6,3.8-13.77c2.53-4.17,5.96-7.45,10.29-9.86,4.33-2.4,9.1-3.61,14.31-3.61s9.87,1.21,14.2,3.64Zm-25.23,5.12c-3.37,1.91-6.07,4.5-8.08,7.74-2.01,3.25-3.02,6.82-3.02,10.73s1.01,7.53,3.02,10.8c2.02,3.27,4.71,5.86,8.08,7.76,3.37,1.9,7.05,2.85,11.03,2.85s7.64-.95,10.97-2.85c3.34-1.9,6-4.49,7.99-7.76,1.99-3.27,2.98-6.87,2.98-10.8s-.99-7.51-2.98-10.75c-1.99-3.23-4.66-5.81-8.01-7.72-3.35-1.91-7-2.87-10.95-2.87s-7.65.96-11.03,2.87Z"/>
        <path class="cls-1" d="m387.94,680.84c3.1,2.4,4.65,5.72,4.65,9.95,0,3.2-.87,5.87-2.63,8.01-1.75,2.14-4.2,3.54-7.34,4.19,3.93.58,6.97,2.08,9.14,4.5,2.16,2.42,3.25,5.49,3.25,9.22,0,4.58-1.73,8.18-5.19,10.78-3.46,2.61-8.24,3.91-14.33,3.91h-23.19v-54.16h22.81c5.46,0,9.75,1.2,12.84,3.61Zm-29.46,19.77h16.32c3.65,0,6.48-.76,8.5-2.28,2.01-1.52,3.02-3.71,3.02-6.55s-1.01-4.86-3.02-6.34c-2.02-1.49-4.85-2.23-8.5-2.23h-16.32v17.41Zm0,24.89h16.32c4.43,0,7.86-.84,10.29-2.51,2.43-1.68,3.65-4.06,3.65-7.16s-1.23-5.24-3.68-6.87c-2.46-1.64-5.87-2.46-10.25-2.46h-16.32v19Z"/>
        <path class="cls-1" d="m430.86,731.39v-54.16h6.2v54.16h-6.2Z"/>
        <path class="cls-1" d="m506.6,725.5v5.89h-29.95v-54.16h6.19v48.27h23.76Z"/>
        <path class="cls-1" d="m539.82,731.39v-54.16h6.19v54.16h-6.19Z"/>
        <path class="cls-1" d="m590.33,717.72l-6.04,13.67h-6.57l24.28-54.16h6.42l24.21,54.16h-6.72l-6.04-13.67h-29.54Zm14.69-33.42l-12.05,27.46h24.28l-12.24-27.46Z"/>
        <path class="cls-1" d="m688.54,714.13c-1.54.1-2.75.15-3.63.15h-14.39v17.11h-6.19v-54.16h20.58c6.75,0,11.99,1.59,15.73,4.76,3.74,3.17,5.61,7.65,5.61,13.44,0,4.43-1.05,8.14-3.13,11.12-2.09,2.98-5.09,5.13-8.99,6.44l12.65,18.39h-7.02l-11.22-17.26Zm7.76-9.03c2.66-2.16,3.98-5.34,3.98-9.52s-1.33-7.16-3.98-9.25c-2.66-2.09-6.45-3.13-11.39-3.13h-14.39v25.15h14.39c4.93,0,8.73-1.08,11.39-3.25Z"/>
        <path class="cls-1" d="m743.43,731.39v-54.16h6.19v54.16h-6.19Z"/>
        <path class="cls-1" d="m793.94,717.72l-6.04,13.67h-6.57l24.28-54.16h6.42l24.21,54.16h-6.72l-6.04-13.67h-29.54Zm14.69-33.42l-12.05,27.46h24.28l-12.24-27.46Z"/>
      </g>
      <g>
        <g>
          <path class="cls-1" d="m182.33,340.4c4.67-7.13,9.51-14.12,14.26-21.18l14.53-20.96c9.69-13.97,19.58-27.78,29.48-41.58,19.84-27.57,40.03-54.86,60.41-82,20.37-27.15,41.06-54.04,61.86-80.84l31.39-40.05,31.68-39.82,11.11-13.96,10.84,14.17,30.47,39.83c10.06,13.36,20.2,26.64,30.18,40.05,20.02,26.78,39.87,53.7,59.45,80.81,19.57,27.13,38.95,54.4,57.99,81.94,9.49,13.79,18.98,27.58,28.27,41.53l13.93,20.92c4.55,7.05,9.19,14.03,13.65,21.14-5.74-6.13-11.31-12.39-16.97-18.58l-16.7-18.79c-11.13-12.52-22.06-25.21-32.98-37.9-21.79-25.41-43.25-51.09-64.51-76.91-21.25-25.83-42.24-51.87-63.05-78.04-10.44-13.06-20.71-26.25-31.07-39.37l-30.78-39.6,21.95.2-31.94,39.61-32.24,39.37c-21.61,26.15-43.34,52.21-65.39,78.01-22.04,25.81-44.27,51.47-66.84,76.85-11.31,12.67-22.63,25.34-34.15,37.84l-17.28,18.76c-5.86,6.18-11.62,12.42-17.56,18.54Z"/>
          <polygon class="cls-1" points="593.65 221.71 868.36 91.29 877.53 86.94 876.33 96.77 846.25 343.9 865.34 95.68 873.31 101.16 604.5 243.34 593.65 221.71"/>
          <polygon class="cls-1" points="267.72 238 4.24 101.18 12.17 95.68 31.26 343.9 1.18 96.77 0 87.04 9.11 91.27 278.4 216.28 267.72 238"/>
          <path class="cls-1" d="m34.54,392.7c7.89-3.1,15.94-5.75,23.99-8.43,8.08-2.55,16.21-4.99,24.36-7.32,16.31-4.7,32.81-8.67,49.34-12.53l12.44-2.74,12.48-2.54c8.31-1.75,16.67-3.23,25.02-4.81,16.71-3.09,33.52-5.53,50.34-7.95,33.65-4.77,67.52-7.98,101.44-10.13,33.93-2.08,67.94-3.15,101.94-2.81,8.5-.03,17,.23,25.49.45l12.74.32c4.25.09,8.5.22,12.74.45l25.46,1.28c8.49.43,16.96,1.13,25.43,1.75,16.96,1.14,33.86,2.96,50.75,4.66,16.87,1.98,33.74,4,50.53,6.55,67.19,9.84,133.72,24.04,198.51,43.8-66.8-11.17-133.54-20.7-200.51-27.4-8.36-.95-16.75-1.52-25.13-2.23-8.38-.68-16.74-1.55-25.13-2.14-16.78-1.03-33.52-2.53-50.32-3.21-8.39-.37-16.77-1-25.17-1.28l-25.18-.89c-8.39-.4-16.79-.4-25.19-.63-8.4-.18-16.79-.38-25.19-.33-67.18-.56-134.36,2.23-201.35,8.12-8.36.83-16.74,1.57-25.1,2.46l-25.08,2.8c-8.35,1.01-16.72,1.92-25.05,3.09l-12.52,1.68-12.49,1.83c-16.68,2.34-33.31,5.09-49.92,8.05-8.31,1.46-16.59,3.06-24.88,4.72-8.29,1.64-16.55,3.41-24.79,5.35Z"/>
        </g>
        <g>
          <rect class="cls-1" x="416.22" y="179.54" width="45.08" height="45.08" transform="translate(271.4 -251.07) rotate(45)"/>
          <rect class="cls-1" x="375.92" y="219.84" width="45.08" height="45.08" transform="translate(288.1 -210.76) rotate(45)"/>
          <rect class="cls-1" x="456.53" y="219.84" width="45.08" height="45.08" transform="translate(311.71 -267.76) rotate(45)"/>
          <rect class="cls-1" x="416.22" y="260.14" width="45.08" height="45.08" transform="translate(328.4 -227.46) rotate(45)"/>
        </g>
      </g>
    </g>
  </g>
</svg>