<svg id="Capa_2" data-name="Capa 2" xmlns="http://www.w3.org/2000/svg" viewBox="0 -0.01 414.64 345.74">   <defs>     <style>       .cls-1 {         fill: #f1b020;       }        .cls-2 {         fill: #076c39;       }        .cls-3 {         fill: #076d3a;       }        .cls-4 {         fill: #231f20;       }     </style>   </defs>   <g id="Capa_1-2" data-name="Capa 1">     <g>       <g>         <path class="cls-4" d="m61.35,301.78H13.58c3.15,0,5.81-2.52,7.98-7.57,2.17-5.04,3.84-11.51,5.03-19.39,1.18-7.88,1.81-16.24,1.89-25.07.08-8.83-.4-17.18-1.42-25.07-1.03-7.88-2.66-14.35-4.91-19.39-2.25-5.04-5.1-7.57-8.57-7.57h45.05c-3.55,0-6.33,2.25-8.34,6.74-2.01,4.49-3.45,10.17-4.32,17.03-.87,6.86-1.38,13.99-1.54,21.4-.16,7.41-.16,14.23,0,20.46.16,6.23.24,10.76.24,13.6,0,3.31.35,6.58,1.06,9.81.71,3.23,2.26,6.15,4.67,8.75,2.4,2.6,6.05,4.69,10.94,6.27Zm1.77,0c8.2-1.42,14.19-3.11,17.97-5.08,3.78-1.89,6.68-4.14,8.69-6.74,2.01-2.6,4-5.68,5.97-9.22-3.71,7.09-7.53,14.11-11.47,21.05h-21.17Z"></path>         <path class="cls-4" d="m97.53,249.76c0-14.58,3.39-26.56,10.17-35.95,6.78-9.38,16-14.98,27.67-16.79-5.6,3.63-10.03,10.01-13.3,19.16-3.27,9.15-4.91,20.34-4.91,33.58s1.62,24.81,4.85,33.99c3.23,9.18,7.65,15.47,13.24,18.86-11.59-1.66-20.77-7.19-27.55-16.61-6.78-9.42-10.17-21.5-10.17-36.24Zm48.95,52.97c6.78-2.92,12.1-9,15.96-18.27,3.86-9.26,5.79-20.83,5.79-34.7s-1.95-25.95-5.85-35.53c-3.9-9.58-9.16-15.39-15.79-17.44,12.61,1.34,22.66,6.74,30.15,16.2,7.49,9.46,11.23,21.72,11.23,36.77s-3.72,26.96-11.17,36.42c-7.45,9.46-17.56,14.98-30.33,16.55Z"></path>         <path class="cls-4" d="m199.1,301.78c2.84,0,5.26-2.52,7.27-7.57,2.01-5.04,3.53-11.51,4.55-19.39,1.02-7.88,1.58-16.24,1.66-25.07.08-8.83-.35-17.18-1.3-25.07-.95-7.88-2.42-14.35-4.43-19.39-2.01-5.04-4.59-7.57-7.75-7.57h30.15v104.05h-30.15Zm49.78-31.69c-3.07-10.33-6.9-16.91-11.47-19.75,5.28-.55,9.42-2.21,12.42-4.97,2.99-2.76,5.08-6.11,6.27-10.05,1.18-3.94,1.77-7.72,1.77-11.35,0-3.39-.55-6.88-1.66-10.46-1.11-3.59-3.09-6.82-5.97-9.7-2.88-2.88-6.88-4.91-12-6.09h8.51c8.91,0,16.16,2.7,21.76,8.1,5.6,5.4,8.4,12.55,8.4,21.46,0,7.09-1.97,12.63-5.91,16.61-3.94,3.98-9.26,6.68-15.96,8.1l-.47.12c-1.34.24-2.44.35-3.31.35-.47,0-.91-.04-1.3-.12,3.23,1.03,6.6,2.25,10.11,3.67,3.51,1.42,6.17,3.11,7.98,5.08,2.6,3.63,4.3,7.71,5.08,12.24.79,4.53,2.25,8.97,4.37,13.3,2.05,3.31,5.06,6.58,9.05,9.81,3.98,3.23,7.47,5.36,10.46,6.39l-7.69-.12h.12c-1.66,0-3.9-.08-6.74-.24-9.15-.32-15.75-1.58-19.81-3.78-4.06-2.21-6.92-5.62-8.57-10.23s-3.47-10.74-5.44-18.39Z"></path>         <path class="cls-4" d="m333.9,301.78h-30.74c3.94-.63,7.11-4.41,9.52-11.35,2.4-6.94,4.04-15.45,4.91-25.54.87-10.09.93-20.16.18-30.21-.75-10.05-2.35-18.54-4.79-25.48-2.44-6.94-5.72-10.76-9.81-11.47h30.74v104.05Zm14.19-104.05h.35c11.59,0,21.28,2.17,29.09,6.5,7.8,4.34,13.68,10.41,17.62,18.21,3.94,7.8,5.91,16.91,5.91,27.31s-2.19,20.1-6.56,27.67c-4.37,7.57-10.52,13.38-18.45,17.44-7.92,4.06-17.25,6.33-27.96,6.8,10.41-1.26,18.68-6.3,24.83-15.13,6.15-8.83,9.22-21.09,9.22-36.77s-2.86-27.29-8.57-36.71c-5.72-9.42-14.21-14.52-25.48-15.31Z"></path>       </g>       <g>         <path class="cls-2" d="m19.51,345.59v-25.59h2.93v25.59h-2.93Z"></path>         <path class="cls-2" d="m59.42,345.59l-15.35-20.54v20.54h-2.93v-25.59h3.03l15.35,20.58v-20.58h2.89v25.59h-3Z"></path>         <path class="cls-2" d="m104.34,345.59l-.05-21.09-9.32,18.38h-1.75l-9.28-18.38v21.09h-2.78v-25.59h3.62l9.35,18.44,9.32-18.44h3.59v25.59h-2.69Z"></path>         <path class="cls-2" d="m143.5,321.65c2.05,1.15,3.67,2.7,4.86,4.67,1.2,1.96,1.79,4.12,1.79,6.48s-.6,4.54-1.79,6.51c-1.2,1.98-2.82,3.54-4.86,4.69-2.05,1.15-4.28,1.73-6.71,1.73s-4.72-.58-6.76-1.73c-2.05-1.15-3.67-2.72-4.86-4.69-1.2-1.98-1.79-4.15-1.79-6.51s.6-4.54,1.79-6.5c1.2-1.97,2.82-3.52,4.86-4.66,2.05-1.14,4.3-1.7,6.76-1.7s4.66.57,6.71,1.72Zm-11.92,2.42c-1.59.9-2.87,2.12-3.82,3.66-.95,1.53-1.43,3.22-1.43,5.07s.48,3.56,1.43,5.1c.95,1.55,2.22,2.77,3.82,3.67,1.59.9,3.33,1.35,5.21,1.35s3.61-.45,5.18-1.35c1.58-.9,2.83-2.12,3.77-3.67.94-1.55,1.41-3.25,1.41-5.1s-.47-3.55-1.41-5.08c-.94-1.53-2.2-2.75-3.78-3.65-1.58-.9-3.31-1.36-5.18-1.36s-3.62.45-5.21,1.36Z"></path>         <path class="cls-2" d="m183.31,321.71c1.46,1.14,2.2,2.7,2.2,4.7,0,1.51-.41,2.77-1.24,3.78-.83,1.01-1.98,1.67-3.47,1.98,1.86.27,3.29.98,4.32,2.12,1.02,1.14,1.53,2.59,1.53,4.35,0,2.17-.82,3.86-2.45,5.09-1.64,1.23-3.89,1.85-6.77,1.85h-10.96v-25.59h10.78c2.58,0,4.6.57,6.07,1.7Zm-13.92,9.34h7.71c1.72,0,3.06-.36,4.02-1.08.95-.72,1.43-1.75,1.43-3.1s-.48-2.3-1.43-3c-.95-.7-2.29-1.05-4.02-1.05h-7.71v8.23Zm0,11.76h7.71c2.09,0,3.71-.4,4.86-1.19,1.15-.79,1.72-1.92,1.72-3.38s-.58-2.47-1.74-3.25-2.78-1.16-4.85-1.16h-7.71v8.98Z"></path>         <path class="cls-2" d="m203.59,345.59v-25.59h2.93v25.59h-2.93Z"></path>         <path class="cls-2" d="m239.38,342.81v2.78h-14.15v-25.59h2.93v22.81h11.23Z"></path>         <path class="cls-2" d="m255.07,345.59v-25.59h2.93v25.59h-2.93Z"></path>         <path class="cls-2" d="m278.94,339.13l-2.86,6.46h-3.1l11.48-25.59h3.03l11.44,25.59h-3.18l-2.86-6.46h-13.96Zm6.94-15.79l-5.69,12.97h11.48l-5.78-12.97Z"></path>         <path class="cls-2" d="m325.35,337.44c-.73.05-1.3.07-1.71.07h-6.8v8.08h-2.93v-25.59h9.73c3.19,0,5.67.75,7.43,2.25,1.77,1.5,2.65,3.62,2.65,6.35,0,2.09-.49,3.85-1.48,5.26-.99,1.41-2.4,2.42-4.25,3.04l5.98,8.69h-3.32l-5.3-8.16Zm3.67-4.27c1.26-1.02,1.88-2.52,1.88-4.5s-.63-3.38-1.88-4.37c-1.25-.99-3.05-1.48-5.38-1.48h-6.8v11.89h6.8c2.33,0,4.12-.51,5.38-1.53Z"></path>         <path class="cls-2" d="m351.28,345.59v-25.59h2.93v25.59h-2.93Z"></path>         <path class="cls-2" d="m375.15,339.13l-2.86,6.46h-3.1l11.48-25.59h3.03l11.44,25.59h-3.18l-2.86-6.46h-13.96Zm6.94-15.79l-5.69,12.97h11.48l-5.78-12.97Z"></path>       </g>       <g>         <g>           <path class="cls-3" d="m86.16,160.84c2.21-3.37,4.49-6.67,6.74-10.01l6.87-9.9c4.58-6.6,9.25-13.13,13.93-19.65,9.38-13.03,18.92-25.92,28.55-38.75,9.62-12.83,19.4-25.54,29.23-38.2l14.83-18.93,14.97-18.81,5.25-6.6,5.12,6.69,14.4,18.82c4.75,6.31,9.55,12.59,14.26,18.93,9.46,12.65,18.84,25.37,28.09,38.19,9.25,12.82,18.41,25.71,27.4,38.72,4.49,6.52,8.97,13.03,13.36,19.62l6.58,9.89c2.15,3.33,4.34,6.63,6.45,9.99-2.71-2.89-5.35-5.85-8.02-8.78l-7.89-8.88c-5.26-5.92-10.42-11.91-15.59-17.91-10.3-12.01-20.43-24.14-30.48-36.34-10.04-12.21-19.96-24.51-29.79-36.87-4.93-6.17-9.78-12.4-14.68-18.6l-14.54-18.71,10.37.1-15.09,18.72-15.23,18.6c-10.21,12.36-20.48,24.67-30.9,36.86-10.41,12.2-20.92,24.32-31.58,36.31-5.35,5.99-10.69,11.97-16.14,17.88l-8.17,8.86c-2.77,2.92-5.49,5.87-8.3,8.76Z"></path>           <polygon class="cls-3" points="280.51 104.76 410.31 43.14 414.64 41.08 414.08 45.73 399.87 162.5 408.89 45.21 412.65 47.8 285.63 114.98 280.51 104.76"></polygon>           <polygon class="cls-3" points="126.5 112.46 2 47.81 5.75 45.21 14.77 162.5 .56 45.73 0 41.13 4.31 43.13 131.55 102.19 126.5 112.46"></polygon>           <path class="cls-3" d="m16.32,185.56c3.73-1.47,7.53-2.72,11.34-3.98,3.82-1.21,7.66-2.36,11.51-3.46,7.71-2.22,15.5-4.1,23.31-5.92l5.88-1.3,5.9-1.2c3.93-.83,7.88-1.53,11.82-2.27,7.89-1.46,15.84-2.61,23.78-3.76,15.9-2.25,31.9-3.77,47.93-4.78,16.03-.98,32.1-1.49,48.17-1.33,4.02-.01,8.03.11,12.05.21l6.02.15c2.01.04,4.01.1,6.02.21l12.03.61c4.01.2,8.01.53,12.02.83,8.01.54,16,1.4,23.98,2.2,7.97.93,15.94,1.89,23.87,3.1,31.75,4.65,63.19,11.36,93.8,20.69-31.56-5.28-63.1-9.78-94.74-12.95-3.95-.45-7.92-.72-11.88-1.05-3.96-.32-7.91-.73-11.87-1.01-7.93-.49-15.84-1.2-23.78-1.52-3.97-.17-7.93-.47-11.89-.61l-11.9-.42c-3.96-.19-7.93-.19-11.9-.3-3.97-.08-7.93-.18-11.9-.16-31.74-.26-63.49,1.05-95.14,3.84-3.95.39-7.91.74-11.86,1.16l-11.85,1.32c-3.95.48-7.9.91-11.84,1.46l-5.91.79-5.9.87c-7.88,1.11-15.74,2.4-23.59,3.81-3.93.69-7.84,1.45-11.75,2.23-3.92.77-7.82,1.61-11.71,2.53Z"></path>         </g>         <g>           <rect class="cls-1" x="196.67" y="84.83" width="21.3" height="21.3" transform="translate(128.24 -118.63) rotate(45)"></rect>           <rect class="cls-1" x="177.63" y="103.88" width="21.3" height="21.3" transform="translate(136.13 -99.59) rotate(45)"></rect>           <rect class="cls-1" x="215.72" y="103.88" width="21.3" height="21.3" transform="translate(147.29 -126.52) rotate(45)"></rect>           <rect class="cls-1" x="196.67" y="122.92" width="21.3" height="21.3" transform="translate(155.17 -107.48) rotate(45)"></rect>         </g>       </g>     </g>   </g> </svg>