<?xml version="1.0" encoding="UTF-8"?>
<svg id="Capa_2" data-name="Capa 2" xmlns="http://www.w3.org/2000/svg" viewBox="0 0 1080 1080">
  <defs>
    <style>
      .cls-1 {
        fill: #04b71e;
      }

      .cls-1, .cls-2, .cls-3 {
        stroke-width: 0px;
      }

      .cls-2 {
        fill: #026c28;
      }

      .cls-3 {
        fill: #fff;
      }
    </style>
  </defs>
  <g id="carro">
    <g>
      <rect class="cls-1" width="1080" height="1080" rx="133.88" ry="133.88"/>
      <g>
        <path class="cls-3" d="M561.44,400.36c18.83-36.93,17.02-70.65-7.42-103.05-3.21-4.26-3.96-12.37-2.53-17.82,9.05-34.53,3.77-65.66-22.54-90.6-25.96-24.59-56.75-31.1-91.16-19.35-4.89,1.67-12.63,2.24-16.16-.46-40.47-30.91-80.15-27.93-114.58-2.15-23.26-12.23-21.87-29.15-59.87-38.26-21.11-1.89-22.25-.47-31.2,1.78-38.48,11.93-76.58,26.37-78.14,73.92-.13,4,1.07,9.44,2.22,12.85,8.82,26.05-2.07,44.07-20.58,61.74-7.63,7.28-23.35,29.69-24.31,41.69-.33,4.14.77-4.09,0,0-1.54,8.19,2.23,30.91,6.67,39.72,11.07,19.24,23.59,23.05,36.29,45.12-25.87,67.96-9.6,105.66,61.45,133.64-2.5,71.55,60.64,125.96,139.41,86.04v249.29l31.6-1.79v-244.92c54.59,10.69,94.79-2.29,120.05-65.13,45.25,10.09,83.64-1.47,105.35-44.16,24.61-48.41,5.88-87.65-34.56-118.12ZM570.11,503.34c-15.11,31.12-49.31,41.06-81.93,23.81-19.19-10.14-26.23-6.14-27.68,15.74-2.79,42.35-39.64,69.56-76.18,54.93-6.56-2.63-10.16-12.79-14.93-19.61-.63-.9.13-2.66-.12-3.96-9.14-46.99,7.36-80.86,50.56-102.46,11.79-5.89,21.56-15.8,32.37-23.72,8.74-6.4,16.45-13.93,8.57-24.88-7.81-10.86-17.24-6.43-26.09.25-20.29,15.3-40.76,30.36-65.32,48.62,0-18.39-1.05-32.36.52-46.02.62-5.41,6.2-11.26,11.01-15,23.26-18.11,46.99-35.61,70.62-53.23,9.16-6.83,17.97-14.46,8.43-26.22-8.63-10.63-17.85-4.37-26.31,1.97-20.16,15.12-40.39,30.14-64.38,48.03,0-20.33,1.4-36.27-.68-51.74-.18-1.32-.68-2.6-1.41-3.84-5.63-9.58-19.94-9.31-25.25.44-.7,1.29-1.15,2.6-1.21,3.92-1.44,30-.65,60.11-.65,94.98-23.63-17.51-44.08-33.07-65.04-47.91-5.08-3.6-11.86-6.65-17.77-6.51-3.69.09-10.42,6.93-10.13,10.24.56,6.4,3.51,14.47,8.3,18.3,23.5,18.78,48.49,35.73,71.69,54.86,6.37,5.26,11.89,16.36,12.36,24.61,1.53,26.65.56,53.44.56,80.17,0,30.51-29.57,55-59.9,49.63-34.3-6.08-54.87-37.22-47.27-71.57,5.53-25.02,4.52-26.39-20-28.24-24.07-1.82-42.21-13.07-51.93-35.37-9.83-22.56-4.66-43.1,10.99-61.55,14.04-16.55,12.94-22.14-6.82-32.96-20.71-11.34-31.92-28.82-31.5-52.15.4-22.4,10.9-40.46,31.65-49.8,17.32-7.79,18.24-17.19,10.64-33.24-14.39-30.4-.47-64.46,29.54-76.99,30.26-12.63,62.19,1.58,75.92,32.9,2.89,6.58,9.18,16.4,13.82,16.35,6.68-.07,15.12-6.44,19.61-12.49,24.07-32.45,64.79-36.06,91.4-5.83,10.58,12.02,18.93,13.48,32.48,5.34,23.75-14.26,49.7-10.95,68.67,6.61,19.64,18.2,24.3,44,10.53,69.82-5.45,10.22-3.19,22.98,5.45,30.7,26.57,23.75,27.81,54.44,5.14,82.47-13.35,16.5-11.38,23.59,8.86,32,33.79,14.03,47.84,47.69,32.82,78.63Z"/>
        <path class="cls-2" d="M280.71,856.08h145.43v-66.35c-18.5-.05-33.1-3.6-31.13-28.74,2.25-28.76,12.94-47.07,36.95-52.81,5.71-1.36,11.72-1.44,19.36-2.31,0-52.06-.01-103.56,0-155.06.01-30.83.33-31.13,31.69-31.19,4.02,0,8.04-.03,12.07,0,24.89.21,27.03,2.43,27.57,27.8.11,5.29.63,10.57,1.05,17.16h280.87c.88-1.55,1.97-2.63,2.07-3.78,3.29-40.4,18.15-51.18,59.11-40,5.85,1.6,12.52,13.29,12.69,20.46,1.13,47.57.59,95.18.59,142.77,0,7.23,0,14.46,0,21.4,41.34,5.57,55.43,19.69,55.79,54.06.27,25.78-.15,26.21-30.86,30.89v67.48c20.08,0,39.4-1.01,58.52.47,8.42.65,16.45,6.37,24.66,9.78v20.09c-269.58.02-539.15.02-808.73.02-2.35-7.63-7.99-16.38-5.93-22.53,1.48-4.41,13.19-7.09,20.5-7.5,18.42-1.03,36.93-.34,56.14-.34M812.3,790.12h-298.6c-4.41,0-7.99,3.58-7.99,7.99v49.24c0,5.18,4.2,9.39,9.39,9.39h296.32c7.36,0,13.33-5.97,13.33-13.33v-40.84c0-6.87-5.57-12.45-12.45-12.45ZM445.1,757.55h441.1c12.83,0,13.63-18.84.85-20.05-2.94-.28-6.07-.28-9.2-.28-79.68,0-159.36,0-239.04,0-62.27,0-124.54,0-186.81,0-2.66,0-5.3.02-7.83.2-12.8.95-11.91,20.13.93,20.13ZM532.81,612.83h264.62c5.74,0,10.51-5.01,9.6-10.68-.84-5.28-5.79-7.13-14.34-7.1-85.11.3-170.22.28-255.34.02-8.54-.03-13.49,1.87-14.24,7.14-.81,5.67,3.98,10.62,9.7,10.62ZM665.92,643.26c-42.18,0-84.37-.32-126.54.39-.85.01-1.71.16-2.56.4-8.26,2.33-8.55,14.55-.32,17,.75.22,1.51.35,2.27.36,84.36.59,168.73.59,253.09-.02,1.15,0,2.29-.33,3.44-.86,7.75-3.6,6.67-15.48-1.78-16.8-.35-.05-.7-.09-1.06-.09-42.17-.65-84.36-.37-126.54-.38ZM797.66,707.17c5.88,0,10.49-5.72,8.55-11.27-2.08-5.97-9.94-4.55-16.33-4.56-59.61-.09-119.23-.05-178.84-.05-24.78,0-49.58-.36-74.34.34-.97.03-1.93.25-2.89.6-6.56,2.42-6.89,12.04-.26,14.27.58.2,1.16.31,1.74.31,87.11.46,174.22.37,262.36.36ZM490.35,673.4v-88.09c0-5.31-7.83-5.64-8.29-.35-2.34,26.62-2.32,62.43.1,88.84.48,5.2,8.2,4.82,8.2-.4ZM848.13,676.21c2.57-24.05,2.93-57.4,1.03-83.88-.44-6.07-9.48-5.72-9.48.37v83.08c0,5.37,7.88,5.77,8.45.43ZM474.8,823.72c0-8.64.72-17.38-.36-25.88-.07-.56-.25-1.11-.52-1.64-2.65-5.32-10-5.74-14.06-1.4-1.05,1.13-1.78,2.27-1.85,3.46-.93,16.57-.83,33.24-.06,49.82.03.69.27,1.37.66,2.05,2.86,5,9.93,5.28,13.79,1,1.01-1.12,1.76-2.29,1.99-3.55,1.4-7.73.42-15.88.4-23.86ZM872.69,823.65c0-8.64.72-17.37-.36-25.87-.07-.56-.25-1.1-.52-1.64-2.65-5.3-10-5.7-14.02-1.35-1.05,1.14-1.78,2.29-1.84,3.49-.93,16.56-.82,33.22-.05,49.8.03.69.27,1.37.66,2.04,2.85,4.98,9.9,5.23,13.73.96,1.02-1.13,1.77-2.32,2-3.59,1.39-7.72.42-15.87.4-23.85Z"/>
      </g>
    </g>
  </g>
</svg>