<?xml version="1.0" encoding="UTF-8"?>
<svg id="Capa_2" data-name="Capa 2" xmlns="http://www.w3.org/2000/svg" viewBox="0 0 1080 1080">
  <defs>
    <style>
      .cls-1 {
        fill: #04b71e;
      }

      .cls-1, .cls-2, .cls-3 {
        stroke-width: 0px;
      }

      .cls-2 {
        fill: #026c28;
      }

      .cls-3 {
        fill: #fff;
      }
    </style>
  </defs>
  <g id="piscina">
    <rect class="cls-1" width="1080" height="1080" rx="133.88" ry="133.88"/>
    <g>
      <path class="cls-3" d="M652.11,593.75v-23.13c0-.19-.15-.34-.34-.34h-355.2c-.18,0-.33.15-.33.33-.01,13.85-.66,27.87-.12,41.82.2,5.1-2.1,10.02-6.24,13-15.28,11-30.84,11.68-46.75-.13-3.23-2.4-5.15-6.2-5.15-10.22-.03-118.78-.08-205.58,0-325.45.03-41.52,9.73-79.91,35.78-113.49,41.99-54.12,148.7-76.82,206.94.98,17.38,23.22,29.83,48.72,37.18,76.68,4.56,17.37-3.48,32.4-19.15,37.12-16.18,4.87-30.51-4.28-37.21-21.26-7.15-18.11-14.38-36.64-24.79-52.92-33.49-52.33-105.63-32.48-126.03,8.9-9.24,18.74-13.96,38.35-14.17,59.04-.3,29.28-.08,43.12-.08,73.21,0,.19.15,15.77.34.34h354.39c.19,15.44.34-.15.34-.34,0-11.43-.5-7.2.1-18.35,1.81-33.79.11-68.37,6.91-101.17,16.86-81.4,94.06-127.95,171.32-106.78,27.58,7.56,48.61,24.6,65.7,46.81,17.16,22.29,28.72,47.5,36.2,74.51,4.87,17.57-3.84,33.9-19.53,38.19-16.42,4.48-29.68-4.52-36.79-21.95-7.66-18.76-15.5-37.94-26.64-54.69-32.38-48.66-102.04-29.91-122.62,8.35-12,22.31-16.22,46.09-16.25,70.89-.1,98.44-.06,196.88-.06,295.32,0,11.43-5.47,22.45-15.19,28.47-10.12,6.27-20.91,4.99-32.31-3.43-6.44-4.76-10.23-12.33-10.23-20.34ZM650.49,509.91v-95.08c0-.19-.15-.34-.34-.34h-352.55c-.19,0-.34.15-.34.34v95.08c0,.19.15.34.34.34h352.55c.19,0,.34-.15.34-.34Z"/>
      <path class="cls-2" d="M68.31,678.54c27.88,40.48,69.02,71.58,116.98,83.92,47.36,12.18,97.65,4.54,140.13-19.36,25.11-14.13,45.88-33.54,63.38-56.22-13.09,1.69-26.18,3.37-39.26,5.06,35.54,44.25,88.23,76.67,144.29,86.58,29.55,5.22,58.99,5.01,88.41-1.13,27.05-5.64,53.5-16.68,76.86-31.4,28.53-17.98,52.52-41.25,72.27-68.49-13.09,1.69-26.18,3.37-39.26,5.06,34.25,37.24,81.3,60.2,131.46,65.36,45.74,4.7,93.49-9.47,130.59-36.3,22.88-16.54,42.15-36.54,57.53-60.27,7.13-11,2.59-28.1-8.97-34.2-12.45-6.58-26.6-2.77-34.2,8.97-1.79,2.77-3.64,5.5-5.56,8.17-1.09,1.52-2.3,2.97-3.35,4.52,4.14-6.07,1.5-1.96.43-.65-4.11,5.05-8.48,9.9-13.08,14.5s-9.36,8.91-14.37,12.99c-.65.53-5.46,4.3-1.79,1.46s-1.19.84-1.87,1.33c-2.59,1.87-5.23,3.68-7.91,5.42-5.34,3.46-10.85,6.64-16.52,9.53-2.82,1.43-5.67,2.8-8.56,4.08-1.73.77-6.02,1.88,1-.4-1.7.55-3.35,1.34-5.03,1.97-11.75,4.39-23.92,7.46-36.34,9.19l6.65-.89c-14.69,1.93-29.49,1.86-44.18-.09l6.65.89c-9.94-1.4-19.74-3.59-29.3-6.65-4.69-1.5-9.2-3.56-13.87-5.07,7.69,2.49-.42-.25-2.42-1.2-2.35-1.11-4.67-2.27-6.96-3.48-4.4-2.32-8.71-4.82-12.9-7.5s-8.06-6.03-12.32-8.57c5.77,3.45,2.08,1.61.54.37-.93-.75-1.86-1.52-2.77-2.29-2.02-1.7-4.01-3.45-5.95-5.24-3.92-3.6-7.66-7.39-11.26-11.31-5.34-5.81-13.45-7.89-21-6.88-8.22,1.1-13.5,5.36-18.26,11.94-1.11,1.52-2.42,3.01-3.41,4.61,3.97-6.45.73-.95-.5.56-2.39,2.95-4.85,5.84-7.38,8.66-5.03,5.61-10.34,10.98-15.91,16.07-2.76,2.53-5.59,4.99-8.48,7.38-1.08.89-2.17,1.77-3.26,2.65-2.04,1.61-1.46,1.17,1.75-1.32-.74.57-1.48,1.13-2.23,1.69-5.95,4.45-12.11,8.61-18.47,12.45-6.31,3.82-12.81,7.32-19.47,10.49-1.66.79-3.33,1.56-5,2.3s-6.15,2.21.92-.35c-3.44,1.24-6.79,2.72-10.24,3.95-13.72,4.89-27.9,8.33-42.33,10.29l6.65-.89c-17.34,2.23-34.8,2.18-52.14-.1l6.65.89c-13.35-1.85-26.48-4.93-39.24-9.27-3.09-1.05-6.16-2.18-9.2-3.37-1.74-.68-7.65-3.73-.52-.14-1.67-.84-3.44-1.5-5.14-2.29-5.98-2.75-11.84-5.77-17.55-9.05s-11.34-6.84-16.77-10.63c-1.56-1.09-3.1-2.19-4.63-3.32-.65-.48-5.68-4.21-2.02-1.49s-1.31-1.09-1.95-1.61c-1.48-1.21-2.94-2.44-4.39-3.68-10.6-9.13-20.29-19.24-29.05-30.15-4.83-6.01-13.85-7.84-21-6.88-8.39,1.13-13.26,5.45-18.26,11.94,4.84-6.27-1.08,1.19-2.46,2.79-1.87,2.18-3.8,4.31-5.77,6.4-3.76,3.98-7.71,7.78-11.82,11.39-2.13,1.88-4.31,3.7-6.53,5.47-3.13,2.5-.42-.02,1.15-.87-1.2.65-2.29,1.71-3.41,2.51-4.57,3.28-9.3,6.35-14.16,9.19s-9.39,5.19-14.24,7.46c-1.26.59-2.54,1.15-3.81,1.72-2.81,1.28,5.52-2.2,1.48-.63-2.59,1.01-5.17,2.02-7.79,2.94-10.44,3.65-21.2,6.23-32.15,7.79l6.65-.89c-14.05,1.87-28.17,1.91-42.22.07l6.65.89c-11.66-1.63-23.12-4.45-34.18-8.49-1.28-.47-2.56-.95-3.83-1.45-.85-.33-1.69-.67-2.54-1.02l3.45,1.46c-2.97-1.11-5.87-2.62-8.71-4.03-5.14-2.55-10.16-5.35-15.03-8.39s-9.58-6.44-14.25-9.87c5.96,4.38,2.05,1.57.69.45-1.26-1.03-2.51-2.08-3.74-3.14-2.3-1.98-4.55-4.02-6.75-6.11-4.42-4.21-8.63-8.65-12.61-13.28-1.85-2.15-3.59-4.39-5.39-6.58,4.62,5.67,1.51,1.93.48.52-1.12-1.54-2.21-3.1-3.29-4.66-7.4-10.75-22.28-16.66-34.2-8.97-10.69,6.89-16.9,22.69-8.97,34.2h0Z"/>
      <path class="cls-2" d="M68.31,874.54c27.88,40.48,69.02,71.58,116.98,83.92,47.36,12.18,97.65,4.54,140.13-19.36,25.11-14.13,45.88-33.54,63.38-56.22-13.09,1.69-26.18,3.37-39.26,5.06,35.54,44.25,88.23,76.67,144.29,86.58,29.55,5.22,58.99,5.01,88.41-1.13,27.05-5.64,53.5-16.68,76.86-31.4,28.53-17.98,52.52-41.25,72.27-68.49-13.09,1.69-26.18,3.37-39.26,5.06,34.25,37.24,81.3,60.2,131.46,65.36,45.74,4.7,93.49-9.47,130.59-36.3,22.88-16.54,42.15-36.54,57.53-60.27,7.13-11,2.59-28.1-8.97-34.2-12.45-6.58-26.6-2.77-34.2,8.97-1.79,2.77-3.64,5.5-5.56,8.17-1.09,1.52-2.3,2.97-3.35,4.52,4.14-6.07,1.5-1.96.43-.65-4.11,5.05-8.48,9.9-13.08,14.5s-9.36,8.91-14.37,12.99c-.65.53-5.46,4.3-1.79,1.46s-1.19.84-1.87,1.33c-2.59,1.87-5.23,3.68-7.91,5.42-5.34,3.46-10.85,6.64-16.52,9.53-2.82,1.43-5.67,2.8-8.56,4.08-1.73.77-6.02,1.88,1-.4-1.7.55-3.35,1.34-5.03,1.97-11.75,4.39-23.92,7.46-36.34,9.19l6.65-.89c-14.69,1.93-29.49,1.86-44.18-.09l6.65.89c-9.94-1.4-19.74-3.59-29.3-6.65-4.69-1.5-9.2-3.56-13.87-5.07,7.69,2.49-.42-.25-2.42-1.2-2.35-1.11-4.67-2.27-6.96-3.48-4.4-2.32-8.71-4.82-12.9-7.5s-8.06-6.03-12.32-8.57c5.77,3.45,2.08,1.61.54.37-.93-.75-1.86-1.52-2.77-2.29-2.02-1.7-4.01-3.45-5.95-5.24-3.92-3.6-7.66-7.39-11.26-11.31-5.34-5.81-13.45-7.89-21-6.88-8.22,1.1-13.5,5.36-18.26,11.94-1.11,1.52-2.42,3.01-3.41,4.61,3.97-6.45.73-.95-.5.56-2.39,2.95-4.85,5.84-7.38,8.66-5.03,5.61-10.34,10.98-15.91,16.07-2.76,2.53-5.59,4.99-8.48,7.38-1.08.89-2.17,1.77-3.26,2.65-2.04,1.61-1.46,1.17,1.75-1.32-.74.57-1.48,1.13-2.23,1.69-5.95,4.45-12.11,8.61-18.47,12.45s-12.81,7.32-19.47,10.49c-1.66.79-3.33,1.56-5,2.3s-6.15,2.21.92-.35c-3.44,1.24-6.79,2.72-10.24,3.95-13.72,4.89-27.9,8.33-42.33,10.29l6.65-.89c-17.34,2.23-34.8,2.18-52.14-.1l6.65.89c-13.35-1.85-26.48-4.93-39.24-9.27-3.09-1.05-6.16-2.18-9.2-3.37-1.74-.68-7.65-3.73-.52-.14-1.67-.84-3.44-1.5-5.14-2.29-5.98-2.75-11.84-5.77-17.55-9.05s-11.34-6.84-16.77-10.63c-1.56-1.09-3.1-2.19-4.63-3.32-.65-.48-5.68-4.21-2.02-1.49s-1.31-1.09-1.95-1.61c-1.48-1.21-2.94-2.44-4.39-3.68-10.6-9.13-20.29-19.24-29.05-30.15-4.83-6.01-13.85-7.84-21-6.88-8.39,1.13-13.26,5.45-18.26,11.94,4.84-6.27-1.08,1.19-2.46,2.79-1.87,2.18-3.8,4.31-5.77,6.4-3.76,3.98-7.71,7.78-11.82,11.39-2.13,1.88-4.31,3.7-6.53,5.47-3.13,2.5-.42-.02,1.15-.87-1.2.65-2.29,1.71-3.41,2.51-4.57,3.28-9.3,6.35-14.16,9.19s-9.39,5.19-14.24,7.46c-1.26.59-2.54,1.15-3.81,1.72-2.81,1.28,5.52-2.2,1.48-.63-2.59,1.01-5.17,2.02-7.79,2.94-10.44,3.65-21.2,6.23-32.15,7.79l6.65-.89c-14.05,1.87-28.17,1.91-42.22.07l6.65.89c-11.66-1.63-23.12-4.45-34.18-8.49-1.28-.47-2.56-.95-3.83-1.45-.85-.33-1.69-.67-2.54-1.02l3.45,1.46c-2.97-1.11-5.87-2.62-8.71-4.03-5.14-2.55-10.16-5.35-15.03-8.39s-9.58-6.44-14.25-9.87c5.96,4.38,2.05,1.57.69.45-1.26-1.03-2.51-2.08-3.74-3.14-2.3-1.98-4.55-4.02-6.75-6.11-4.42-4.21-8.63-8.65-12.61-13.28-1.85-2.15-3.59-4.39-5.39-6.58,4.62,5.67,1.51,1.93.48.52-1.12-1.54-2.21-3.1-3.29-4.66-7.4-10.75-22.28-16.66-34.2-8.97-10.69,6.89-16.9,22.69-8.97,34.2h0Z"/>
    </g>
  </g>
</svg>