<svg width="133" height="124" viewBox="0 0 133 124" fill="none" xmlns="http://www.w3.org/2000/svg">
<g clip-path="url(#clip0_94_32)">
<path d="M113.871 -21L-19 103.376L0.13477 123.818L133.005 -0.558393L113.871 -21Z" fill="#04B71E"/>
<path d="M21.8259 93.9249L11.8857 83.306L16.0753 79.3843C16.8807 78.6303 17.7108 78.1419 18.5657 77.9189C19.4173 77.6924 20.2458 77.7114 21.0511 77.9758C21.8566 78.2336 22.5894 78.715 23.2495 79.4202C23.9096 80.1253 24.3399 80.8899 24.5405 81.7139C24.7411 82.5379 24.6935 83.3705 24.3977 84.2116C24.1054 85.0494 23.5514 85.8502 22.7356 86.6138L20.0653 89.1133L18.3811 87.3142L20.6884 85.1543C21.1205 84.7499 21.407 84.3422 21.5479 83.9314C21.6889 83.514 21.704 83.1076 21.5931 82.712C21.4825 82.3097 21.2637 81.934 20.9369 81.5849C20.6069 81.2323 20.2481 80.991 19.8604 80.8609C19.473 80.7242 19.0696 80.7159 18.6503 80.836C18.2277 80.9527 17.7986 81.2149 17.3631 81.6226L15.849 83.0399L24.071 91.8234L21.8259 93.9249ZM31.2795 85.0757L21.3394 74.4566L25.5289 70.535C26.3309 69.7843 27.1496 69.2871 27.9851 69.0433C28.8208 68.7929 29.6315 68.7894 30.4174 69.0331C31.2035 69.2701 31.925 69.7395 32.5818 70.4412C33.2419 71.1464 33.6577 71.8954 33.8292 72.6883C33.9974 73.4777 33.919 74.2775 33.5942 75.0874C33.2727 75.8942 32.7041 76.6794 31.8883 77.443L29.0832 80.0688L27.3942 78.2644L29.8363 75.9784C30.265 75.5771 30.566 75.1851 30.7394 74.8022C30.9129 74.4194 30.9587 74.0457 30.877 73.6812C30.7987 73.3135 30.5961 72.9551 30.2693 72.6059C29.9392 72.2534 29.5901 72.0224 29.2219 71.9131C28.8571 71.8006 28.473 71.8164 28.0696 71.9605C27.6665 72.0979 27.2488 72.3689 26.8167 72.7733L25.3027 74.1906L33.5247 82.9741L31.2795 85.0757ZM32.4907 74.8751L39.6534 77.2372L37.175 79.5572L30.0693 77.1418L32.4907 74.8751ZM40.8616 76.1063L30.9214 65.4872L38.0768 58.7893L39.8095 60.6404L34.8993 65.2367L37.2678 67.767L41.81 63.5153L43.5427 65.3664L39.0006 69.618L41.374 72.1536L46.305 67.5378L48.0377 69.3889L40.8616 76.1063ZM45.1596 52.1593L55.2784 57.8247L55.3769 57.7325L50.3965 47.2572L52.8854 44.9274L59.1649 58.9731L56.2716 61.6814L42.6656 54.4939L45.1596 52.1593ZM64.1036 54.3501L54.1635 43.731L61.3189 37.0331L63.0516 38.8842L58.1414 43.4805L60.5099 46.0108L65.052 41.7591L66.7848 43.6102L62.2427 47.8619L64.6161 50.3974L69.5471 45.7816L71.2798 47.6327L64.1036 54.3501ZM71.9859 27.0481L81.926 37.6671L79.9868 39.4823L69.1107 37.1233L69.0329 37.1961L75.2891 43.8797L73.044 45.9813L63.1039 35.3622L65.0742 33.5179L75.9092 35.9057L76.0025 35.8183L69.7511 29.1399L71.9859 27.0481ZM75.1692 27.5413L73.4364 25.6903L82.1577 17.5265L83.8904 19.3776L80.6394 22.4208L88.8468 31.1888L86.6276 33.2661L78.4202 24.4981L75.1692 27.5413ZM94.0669 26.3024L91.661 28.5545L85.3867 14.504L88.28 11.7957L101.881 18.9881L99.4749 21.2401L89.1463 15.5376L89.0634 15.6153L94.0669 26.3024ZM90.0094 22.2692L95.6922 16.9497L97.3327 18.7022L91.6499 24.0217L90.0094 22.2692Z" fill="white"/>
</g>
<defs>
<clipPath id="clip0_94_32">
<rect width="152.01" height="144.82" fill="white" transform="translate(-19 -21)"/>
</clipPath>
</defs>
</svg>
